<svg viewBox="0 0 388 324" fill="none" xmlns="http://www.w3.org/2000/svg">
<path d="M368 161.32C378.09 207.32 349.91 237.04 310.89 235.66C292.18 235 269.84 214.43 251.47 209.85C227.47 203.85 206.71 211.62 183.78 212.76C126.73 215.58 127.48 192.3 89.0398 162.28C62.0398 141.18 18.4698 143.49 4.03981 106.54C-13.6402 61.3696 37.0398 39.5396 75.5398 46.2396C119.78 53.9196 132.03 -1.1604 199.6 4.9396C266 10.9396 353.79 91.9996 368 161.32Z" fill="#754FFE"/>
<path opacity="0.9" d="M368 161.32C378.09 207.32 349.91 237.04 310.89 235.66C292.18 235 269.84 214.43 251.47 209.85C227.47 203.85 206.71 211.62 183.78 212.76C126.73 215.58 127.48 192.3 89.0398 162.28C62.0398 141.18 18.4698 143.49 4.03981 106.54C-13.6402 61.3696 37.0398 39.5396 75.5398 46.2396C119.78 53.9196 132.03 -1.1604 199.6 4.9396C266 10.9396 353.79 91.9996 368 161.32Z" fill="white"/>
<path d="M194 323.56C301.082 323.56 387.89 318.492 387.89 312.24C387.89 305.988 301.082 300.92 194 300.92C86.9174 300.92 0.109863 305.988 0.109863 312.24C0.109863 318.492 86.9174 323.56 194 323.56Z" fill="#F5F5F5"/>
<path d="M204.41 261.5H76.8401C74.7886 261.471 72.8241 260.668 71.3404 259.251C69.8566 257.834 68.9635 255.908 68.8401 253.86L57.4001 32.3102C57.3366 31.3247 57.4775 30.3368 57.8137 29.4083C58.15 28.4798 58.6744 27.6308 59.3541 26.9144C60.0338 26.1981 60.8542 25.6298 61.7638 25.2454C62.6734 24.8609 63.6526 24.6685 64.6401 24.6802H192.21C194.261 24.7068 196.225 25.5082 197.709 26.9235C199.193 28.3389 200.086 30.2632 200.21 32.3102L211.63 253.86C211.693 254.844 211.553 255.831 211.218 256.759C210.883 257.686 210.361 258.535 209.683 259.252C209.006 259.969 208.188 260.538 207.281 260.925C206.374 261.312 205.396 261.508 204.41 261.5V261.5Z" fill="#754FFE"/>
<path opacity="0.8" d="M204.41 261.5H76.8401C74.7886 261.471 72.8241 260.668 71.3404 259.251C69.8566 257.834 68.9635 255.908 68.8401 253.86L57.4001 32.3102C57.3366 31.3247 57.4775 30.3368 57.8137 29.4083C58.15 28.4798 58.6744 27.6308 59.3541 26.9144C60.0338 26.1981 60.8542 25.6298 61.7638 25.2454C62.6734 24.8609 63.6526 24.6685 64.6401 24.6802H192.21C194.261 24.7068 196.225 25.5082 197.709 26.9235C199.193 28.3389 200.086 30.2632 200.21 32.3102L211.63 253.86C211.693 254.844 211.553 255.831 211.218 256.759C210.883 257.686 210.361 258.535 209.683 259.252C209.006 259.969 208.188 260.538 207.281 260.925C206.374 261.312 205.396 261.508 204.41 261.5V261.5Z" fill="white"/>
<path d="M179.62 17.46H165.51V18.46H179.62V17.46Z" fill="#754FFE"/>
<path d="M160.62 17.46H155.45V18.46H160.62V17.46Z" fill="#754FFE"/>
<path d="M209.9 247.44H87.9003C85.9357 247.421 84.0512 246.658 82.6262 245.306C81.2012 243.953 80.3416 242.111 80.2203 240.15L69.3003 28.2497C69.2396 27.3066 69.3744 26.3611 69.6963 25.4726C70.0182 24.584 70.5203 23.7716 71.1709 23.0862C71.8216 22.4008 72.6069 21.8572 73.4775 21.4896C74.3481 21.1219 75.2853 20.9381 76.2303 20.9497H198.23C200.195 20.9714 202.078 21.7365 203.501 23.091C204.924 24.4454 205.782 26.2887 205.9 28.2497L216.82 240.15C216.881 241.092 216.746 242.036 216.425 242.923C216.104 243.81 215.602 244.622 214.953 245.306C214.303 245.991 213.519 246.534 212.649 246.901C211.78 247.268 210.844 247.451 209.9 247.44Z" fill="#754FFE"/>
<path d="M209.9 242.57H87.9C87.1845 242.546 86.503 242.259 85.985 241.765C85.4669 241.271 85.1484 240.604 85.09 239.89L74.16 28.0004C74.1353 27.7185 74.1706 27.4346 74.2637 27.1674C74.3568 26.9002 74.5055 26.6558 74.7 26.4504C74.8951 26.2454 75.1314 26.0841 75.3935 25.9772C75.6555 25.8704 75.9372 25.8203 76.22 25.8304H198.22C198.934 25.8573 199.613 26.145 200.129 26.6388C200.645 27.1327 200.962 27.7985 201.02 28.5104L212 240.4C212.024 240.681 211.989 240.964 211.896 241.23C211.803 241.496 211.655 241.74 211.461 241.945C211.268 242.15 211.033 242.311 210.772 242.419C210.512 242.527 210.232 242.578 209.95 242.57H209.9ZM76.22 26.0804C75.9714 26.0723 75.7238 26.1162 75.4931 26.2092C75.2624 26.3021 75.0536 26.4422 74.88 26.6204C74.7131 26.805 74.5853 27.0217 74.5045 27.2572C74.4238 27.4927 74.3916 27.7421 74.41 27.9904L85.33 239.88C85.3857 240.529 85.6766 241.136 86.1481 241.585C86.6196 242.034 87.2391 242.296 87.89 242.32H209.89C210.137 242.33 210.384 242.287 210.613 242.194C210.843 242.101 211.049 241.96 211.22 241.78C211.391 241.598 211.521 241.382 211.602 241.146C211.683 240.91 211.713 240.659 211.69 240.41L200.78 28.5204C200.727 27.8723 200.438 27.2661 199.968 26.8165C199.498 26.367 198.88 26.1051 198.23 26.0804H76.22Z" fill="white"/>
<path opacity="0.3" d="M167.227 103.056C181.103 88.8168 180.199 65.431 165.209 50.8225C150.218 36.2141 126.817 35.9148 112.94 50.154C99.0643 64.3933 99.9679 87.779 114.959 102.388C129.949 116.996 153.351 117.295 167.227 103.056Z" fill="white"/>
<path d="M170 76.6102C170.28 81.5244 169.291 86.428 167.13 90.8502C164.79 95.5934 161.158 99.579 156.651 102.348C152.145 105.117 146.948 106.556 141.66 106.5C136.179 106.451 130.805 104.984 126.059 102.241C121.314 99.4986 117.359 95.5743 114.58 90.8502C111.99 86.5301 110.5 81.6405 110.24 76.6102C109.993 72.7525 110.546 68.8853 111.862 65.2509C113.179 61.6164 115.232 58.2928 117.892 55.488C120.552 52.6833 123.762 50.4578 127.322 48.9509C130.882 47.4439 134.714 46.6879 138.58 46.7302C146.625 46.814 154.339 49.9433 160.169 55.4876C165.999 61.0319 169.512 68.5795 170 76.6102V76.6102Z" fill="white"/>
<path d="M167.1 90.85C164.76 95.5932 161.128 99.5788 156.622 102.348C152.116 105.116 146.919 106.556 141.63 106.5C136.15 106.451 130.775 104.983 126.03 102.241C121.284 99.4984 117.329 95.5742 114.55 90.85C122.15 85.6019 131.175 82.8098 140.41 82.85C149.892 82.8857 159.162 85.6641 167.1 90.85V90.85Z" fill="#754FFE"/>
<path d="M149.348 75.9149C154.347 70.7848 154.019 62.3578 148.616 57.0925C143.213 51.8273 134.781 51.7178 129.781 56.8479C124.782 61.978 125.11 70.405 130.513 75.6702C135.916 80.9355 144.348 81.045 149.348 75.9149Z" fill="#754FFE"/>
<path d="M192.41 165H96.8799C96.0478 164.992 95.2499 164.668 94.6469 164.095C94.0438 163.521 93.6804 162.741 93.6299 161.91L92.9099 147.91C92.8851 147.512 92.9428 147.113 93.0792 146.738C93.2157 146.363 93.4281 146.02 93.7032 145.731C93.9782 145.442 94.3099 145.213 94.6776 145.058C95.0452 144.903 95.4409 144.825 95.8399 144.83H191.37C192.2 144.839 192.997 145.161 193.6 145.732C194.202 146.303 194.567 147.082 194.62 147.91L195.34 161.91C195.366 162.309 195.31 162.709 195.174 163.086C195.038 163.462 194.826 163.806 194.551 164.096C194.275 164.386 193.943 164.616 193.575 164.772C193.206 164.928 192.81 165.005 192.41 165V165Z" fill="white"/>
<path opacity="0.3" d="M163.16 137.1H123.26C122.425 137.094 121.623 136.77 121.017 136.195C120.412 135.619 120.048 134.834 120 134L119.85 131C119.824 130.601 119.88 130.201 120.016 129.825C120.152 129.449 120.364 129.105 120.639 128.815C120.915 128.525 121.247 128.294 121.615 128.139C121.984 127.983 122.38 127.905 122.78 127.91H162.67C163.502 127.919 164.3 128.243 164.903 128.816C165.506 129.389 165.869 130.17 165.92 131L166.08 134C166.105 134.399 166.047 134.798 165.912 135.173C165.776 135.548 165.565 135.892 165.291 136.183C165.017 136.473 164.687 136.704 164.321 136.862C163.954 137.02 163.559 137.101 163.16 137.1V137.1Z" fill="black"/>
<path opacity="0.3" d="M178 232.31H118.23C116.815 232.292 115.458 231.74 114.433 230.765C113.407 229.789 112.788 228.462 112.7 227.05L112.35 220.15C112.315 219.471 112.418 218.793 112.653 218.156C112.889 217.519 113.251 216.937 113.719 216.445C114.187 215.953 114.75 215.561 115.375 215.294C115.999 215.026 116.671 214.889 117.35 214.89H177.1C178.515 214.907 179.872 215.459 180.897 216.434C181.923 217.41 182.542 218.737 182.63 220.15L182.98 227.05C183.015 227.726 182.913 228.403 182.678 229.038C182.444 229.674 182.083 230.255 181.618 230.747C181.152 231.239 180.591 231.631 179.969 231.9C179.347 232.168 178.677 232.308 178 232.31V232.31Z" fill="black"/>
<path d="M194.16 198.86H98.6201C97.7888 198.849 96.9922 198.525 96.3896 197.952C95.7871 197.379 95.4229 196.6 95.3701 195.77L94.6501 181.77C94.6254 181.371 94.683 180.972 94.8194 180.596C94.9558 180.221 95.168 179.877 95.4429 179.587C95.7178 179.298 96.0494 179.067 96.4171 178.911C96.7848 178.755 97.1807 178.676 97.5801 178.68H193.11C193.942 178.688 194.74 179.012 195.343 179.585C195.946 180.159 196.31 180.939 196.36 181.77L197.09 195.77C197.113 196.168 197.055 196.567 196.918 196.942C196.781 197.317 196.569 197.659 196.294 197.949C196.019 198.239 195.688 198.469 195.321 198.625C194.954 198.782 194.559 198.862 194.16 198.86V198.86Z" fill="white"/>
<path d="M109 154.91C109.028 155.352 108.964 155.795 108.812 156.211C108.661 156.627 108.426 157.008 108.121 157.329C107.816 157.65 107.448 157.904 107.04 158.077C106.632 158.249 106.193 158.335 105.75 158.33C104.83 158.319 103.949 157.961 103.283 157.326C102.617 156.692 102.216 155.829 102.16 154.91C102.131 154.469 102.194 154.026 102.344 153.61C102.494 153.194 102.729 152.814 103.033 152.493C103.337 152.171 103.705 151.917 104.112 151.744C104.519 151.572 104.958 151.485 105.4 151.49C106.321 151.501 107.204 151.86 107.871 152.494C108.539 153.128 108.942 153.991 109 154.91V154.91Z" fill="#263238"/>
<path d="M119.53 154.91C119.559 155.352 119.497 155.794 119.346 156.211C119.196 156.627 118.962 157.007 118.657 157.328C118.353 157.649 117.986 157.904 117.579 158.077C117.171 158.249 116.733 158.336 116.29 158.33C115.37 158.322 114.487 157.964 113.82 157.329C113.154 156.694 112.753 155.829 112.7 154.91C112.671 154.469 112.734 154.026 112.884 153.61C113.034 153.194 113.269 152.814 113.573 152.493C113.877 152.171 114.245 151.917 114.652 151.744C115.059 151.572 115.498 151.485 115.94 151.49C116.861 151.499 117.744 151.857 118.41 152.492C119.077 153.127 119.477 153.991 119.53 154.91V154.91Z" fill="#263238"/>
<path d="M130 154.91C130.029 155.352 129.966 155.794 129.816 156.211C129.666 156.627 129.431 157.007 129.127 157.328C128.823 157.649 128.456 157.904 128.048 158.077C127.641 158.249 127.202 158.336 126.76 158.33C125.839 158.32 124.957 157.961 124.289 157.327C123.621 156.693 123.218 155.829 123.16 154.91C123.133 154.469 123.196 154.026 123.348 153.61C123.499 153.193 123.735 152.813 124.04 152.492C124.345 152.171 124.713 151.917 125.12 151.744C125.528 151.572 125.967 151.485 126.41 151.49C127.33 151.501 128.211 151.86 128.877 152.495C129.543 153.129 129.945 153.992 130 154.91Z" fill="#263238"/>
<path d="M140.55 154.91C140.577 155.351 140.514 155.793 140.363 156.209C140.212 156.624 139.978 157.004 139.674 157.325C139.37 157.646 139.003 157.901 138.596 158.074C138.19 158.247 137.752 158.334 137.31 158.33C136.389 158.32 135.506 157.961 134.839 157.327C134.171 156.693 133.768 155.829 133.71 154.91C133.682 154.469 133.746 154.027 133.897 153.612C134.047 153.196 134.282 152.817 134.586 152.496C134.89 152.175 135.257 151.92 135.663 151.747C136.07 151.574 136.508 151.487 136.95 151.49C137.871 151.501 138.753 151.86 139.421 152.494C140.089 153.128 140.492 153.991 140.55 154.91V154.91Z" fill="#263238"/>
<path d="M110.77 188.75C110.799 189.192 110.736 189.634 110.586 190.05C110.436 190.466 110.201 190.847 109.897 191.168C109.593 191.489 109.226 191.744 108.818 191.917C108.411 192.089 107.972 192.175 107.53 192.17C106.609 192.16 105.727 191.801 105.059 191.167C104.391 190.533 103.988 189.669 103.93 188.75C103.903 188.308 103.966 187.866 104.118 187.449C104.269 187.033 104.505 186.653 104.81 186.332C105.115 186.011 105.483 185.756 105.89 185.584C106.298 185.412 106.737 185.325 107.18 185.33C108.1 185.341 108.981 185.7 109.647 186.335C110.313 186.969 110.715 187.832 110.77 188.75Z" fill="#263238"/>
<path d="M121.28 188.75C121.307 189.191 121.244 189.633 121.093 190.049C120.942 190.464 120.708 190.844 120.404 191.165C120.1 191.486 119.733 191.741 119.326 191.914C118.92 192.087 118.482 192.174 118.04 192.17C117.119 192.16 116.236 191.801 115.569 191.167C114.901 190.533 114.498 189.669 114.44 188.75C114.411 188.309 114.474 187.866 114.624 187.45C114.774 187.034 115.009 186.654 115.313 186.332C115.617 186.011 115.984 185.757 116.392 185.584C116.799 185.412 117.238 185.325 117.68 185.33C118.601 185.341 119.484 185.7 120.151 186.334C120.819 186.968 121.222 187.831 121.28 188.75Z" fill="#263238"/>
<path d="M131.79 188.75C131.818 189.192 131.754 189.635 131.603 190.051C131.451 190.467 131.216 190.848 130.911 191.169C130.606 191.49 130.238 191.744 129.83 191.917C129.422 192.089 128.983 192.175 128.54 192.17C127.62 192.162 126.737 191.804 126.07 191.169C125.404 190.534 125.003 189.669 124.95 188.75C124.921 188.309 124.984 187.866 125.134 187.45C125.284 187.034 125.519 186.654 125.823 186.332C126.127 186.011 126.495 185.757 126.902 185.584C127.309 185.412 127.748 185.325 128.19 185.33C129.111 185.341 129.994 185.7 130.661 186.334C131.329 186.968 131.732 187.831 131.79 188.75Z" fill="#263238"/>
<path d="M142.29 188.75C142.319 189.192 142.256 189.634 142.106 190.05C141.956 190.466 141.722 190.847 141.417 191.168C141.113 191.489 140.746 191.744 140.338 191.917C139.931 192.089 139.492 192.175 139.05 192.17C138.129 192.16 137.247 191.801 136.579 191.167C135.911 190.533 135.508 189.669 135.45 188.75C135.423 188.308 135.486 187.866 135.638 187.449C135.789 187.033 136.025 186.653 136.33 186.332C136.635 186.011 137.003 185.756 137.41 185.584C137.818 185.412 138.257 185.325 138.7 185.33C139.621 185.339 140.503 185.697 141.17 186.332C141.836 186.967 142.237 187.831 142.29 188.75Z" fill="#263238"/>
<path d="M152.8 188.75C152.829 189.192 152.766 189.634 152.616 190.05C152.466 190.466 152.231 190.847 151.927 191.168C151.623 191.489 151.255 191.744 150.848 191.916C150.441 192.089 150.002 192.175 149.56 192.17C148.639 192.159 147.756 191.801 147.089 191.167C146.421 190.532 146.018 189.669 145.96 188.75C145.932 188.309 145.996 187.867 146.147 187.452C146.297 187.036 146.532 186.656 146.836 186.336C147.14 186.015 147.507 185.76 147.913 185.587C148.32 185.414 148.758 185.327 149.2 185.33C150.121 185.341 151.003 185.699 151.671 186.334C152.339 186.968 152.742 187.831 152.8 188.75Z" fill="#263238"/>
<path d="M163.31 188.75C163.338 189.192 163.274 189.635 163.123 190.051C162.971 190.467 162.736 190.848 162.431 191.169C162.126 191.49 161.758 191.744 161.35 191.917C160.942 192.089 160.503 192.175 160.06 192.17C159.14 192.159 158.259 191.801 157.593 191.166C156.927 190.532 156.526 189.668 156.47 188.75C156.441 188.309 156.504 187.866 156.654 187.45C156.804 187.034 157.039 186.654 157.343 186.332C157.647 186.011 158.015 185.757 158.422 185.584C158.829 185.412 159.268 185.325 159.71 185.33C160.631 185.341 161.514 185.7 162.181 186.334C162.849 186.968 163.252 187.831 163.31 188.75V188.75Z" fill="#263238"/>
<path d="M277 72.6201C277.25 73.0001 277.38 73.2001 277.54 73.4701L277.99 74.2101C278.28 74.7101 278.54 75.2101 278.79 75.7001C279.29 76.7001 279.79 77.7001 280.19 78.7001C281.028 80.6862 281.749 82.7197 282.35 84.7901C283.561 88.88 284.358 93.081 284.73 97.3301L284.8 98.1201C284.808 98.28 284.808 98.4402 284.8 98.6001V99.1301C284.817 99.8256 284.776 100.521 284.68 101.21C284.488 102.487 284.153 103.738 283.68 104.94C282.801 107.086 281.638 109.105 280.22 110.94C277.575 114.327 274.437 117.296 270.91 119.75L268.15 116.52C270.661 113.684 272.886 110.605 274.79 107.33C275.647 105.844 276.319 104.259 276.79 102.61C276.981 101.912 277.092 101.194 277.12 100.47C277.151 100.161 277.151 99.8493 277.12 99.5401V99.3301C277.13 99.2371 277.13 99.1432 277.12 99.0501L277 98.3501C276.357 94.6233 275.448 90.9472 274.28 87.3501C273.7 85.5601 272.99 83.8301 272.28 82.1401C271.93 81.2901 271.53 80.4601 271.13 79.6601L270.51 78.4801L270.2 77.9301L269.94 77.4901L277 72.6201Z" fill="#803E3C"/>
<path d="M267.7 119.77L271.32 127.42L274.19 120.95C274.19 120.95 271.64 115.35 268.19 115.87L267.7 119.77Z" fill="#7F3E3B"/>
<path d="M273.91 127.8L276.79 123.08L274.19 120.95L271.32 127.42L273.91 127.8Z" fill="#7F3E3B"/>
<path d="M257.63 304.22C258.379 304.202 259.123 304.101 259.85 303.92C259.887 303.909 259.92 303.888 259.946 303.86C259.973 303.832 259.991 303.798 260 303.76C260.006 303.722 260.001 303.682 259.985 303.647C259.969 303.611 259.943 303.581 259.91 303.56C259.62 303.37 257.08 301.73 256.1 302.17C255.991 302.221 255.898 302.3 255.83 302.398C255.761 302.496 255.72 302.611 255.71 302.73C255.68 302.911 255.694 303.097 255.751 303.271C255.809 303.445 255.908 303.603 256.04 303.73C256.493 304.08 257.058 304.255 257.63 304.22V304.22ZM259.28 303.63C257.83 303.93 256.73 303.88 256.28 303.49C256.188 303.399 256.121 303.286 256.084 303.162C256.047 303.038 256.042 302.907 256.07 302.78C256.07 302.61 256.17 302.56 256.24 302.53C256.78 302.29 258.25 303 259.28 303.63V303.63Z" fill="#754FFE"/>
<path d="M259.8 303.92H259.9C259.93 303.901 259.955 303.874 259.972 303.843C259.99 303.812 259.999 303.776 260 303.74C260 303.64 260 301.23 259.08 300.42C258.967 300.319 258.834 300.243 258.689 300.198C258.544 300.153 258.39 300.141 258.24 300.16C258.082 300.162 257.93 300.217 257.808 300.317C257.686 300.417 257.602 300.556 257.57 300.71C257.38 301.66 258.9 303.46 259.7 303.92H259.8ZM258.37 300.53C258.451 300.528 258.532 300.542 258.607 300.571C258.683 300.6 258.752 300.644 258.81 300.7C259.338 301.478 259.61 302.401 259.59 303.34C258.79 302.7 257.84 301.34 257.96 300.77C257.96 300.68 258.03 300.56 258.28 300.53H258.37Z" fill="#754FFE"/>
<path d="M248.19 300.14C248.214 300.111 248.229 300.076 248.234 300.039C248.24 300.002 248.235 299.964 248.221 299.929C248.206 299.894 248.183 299.864 248.153 299.841C248.123 299.819 248.088 299.805 248.05 299.8C247.64 299.8 244.05 299.63 243.23 300.51V300.57C243.162 300.657 243.119 300.76 243.103 300.868C243.087 300.977 243.1 301.088 243.14 301.19C243.194 301.362 243.288 301.518 243.415 301.645C243.542 301.773 243.699 301.867 243.87 301.92C245.03 302.28 247.08 300.97 248.2 300.16L248.19 300.14ZM243.53 300.77C243.98 300.29 245.96 300.16 247.44 300.18C245.89 301.24 244.6 301.74 243.95 301.54C243.837 301.506 243.734 301.444 243.65 301.36C243.566 301.277 243.505 301.174 243.47 301.06C243.45 301.022 243.44 300.979 243.44 300.935C243.44 300.892 243.45 300.849 243.47 300.81L243.53 300.77Z" fill="#754FFE"/>
<path d="M248.19 300.14C248.205 300.109 248.213 300.075 248.213 300.04C248.213 300.005 248.205 299.971 248.19 299.94C248.14 299.86 247.02 297.94 245.7 297.54C245.511 297.484 245.312 297.468 245.116 297.492C244.92 297.516 244.731 297.58 244.56 297.68C244.08 297.96 244.05 298.29 244.11 298.5C244.37 299.43 246.92 300.25 248.02 300.24C248.055 300.239 248.089 300.23 248.118 300.212C248.148 300.195 248.173 300.17 248.19 300.14ZM244.6 298.14C244.657 298.085 244.721 298.037 244.79 298C244.914 297.921 245.053 297.871 245.198 297.852C245.343 297.833 245.491 297.846 245.63 297.89C246.5 298.12 247.31 299.24 247.68 299.79C246.49 299.66 244.68 298.93 244.53 298.37C244.517 298.327 244.517 298.282 244.53 298.24C244.542 298.197 244.567 298.159 244.6 298.13V298.14Z" fill="#754FFE"/>
<path d="M259.2 43.3301C258.2 48.3301 256.04 59.1401 259.51 62.4601C259.51 62.4601 258.15 67.4601 248.92 67.4601C238.76 67.4601 244.07 62.4601 244.07 62.4601C249.61 61.1401 249.47 57.0201 248.5 53.1601L259.2 43.3301Z" fill="#7F3E3B"/>
<path d="M242.28 31.6096C242.336 31.6187 242.394 31.6187 242.45 31.6096C242.497 31.5862 242.54 31.5536 242.575 31.5137C242.609 31.4739 242.636 31.4274 242.653 31.3772C242.669 31.327 242.676 31.2739 242.672 31.2211C242.668 31.1683 242.654 31.1168 242.63 31.0696C242.361 30.4992 241.959 30.0016 241.458 29.6188C240.957 29.236 240.371 28.979 239.75 28.8696C239.646 28.8609 239.542 28.8923 239.46 28.9573C239.379 29.0224 239.325 29.1162 239.31 29.2196C239.299 29.3242 239.329 29.4291 239.395 29.5115C239.46 29.5938 239.555 29.6471 239.66 29.6596V29.6596C240.15 29.7537 240.611 29.9634 241.004 30.2712C241.397 30.579 241.711 30.9761 241.92 31.4296C241.959 31.4887 242.012 31.5366 242.076 31.5682C242.139 31.5998 242.209 31.6141 242.28 31.6096Z" fill="#263238"/>
<path d="M239.25 36C238.463 37.4598 237.481 38.8055 236.33 40C236.642 40.285 237.011 40.4988 237.414 40.6265C237.816 40.7543 238.241 40.793 238.66 40.74L239.25 36Z" fill="#630F0F"/>
<path d="M240 34.8701C239.92 35.5401 239.49 36.0401 239.06 35.9901C238.63 35.9401 238.33 35.3501 238.41 34.6801C238.49 34.0101 238.92 33.5101 239.41 33.5601C239.9 33.6101 240.07 34.2001 240 34.8701Z" fill="#263238"/>
<path d="M239.54 33.62L238 33C238 33 238.65 34.32 239.54 33.62Z" fill="#263238"/>
<path d="M257.02 298.24L248.86 300.14L243.9 281.38L252.06 279.48L257.02 298.24Z" fill="#7F3E3B"/>
<path d="M269.54 303.72H261.17L261.82 284.33H270.2L269.54 303.72Z" fill="#7F3E3B"/>
<path d="M260.5 302.75H269.91C270.073 302.749 270.231 302.807 270.355 302.913C270.478 303.02 270.558 303.168 270.58 303.33L271.65 310.77C271.671 310.958 271.652 311.149 271.595 311.329C271.537 311.509 271.441 311.675 271.315 311.816C271.188 311.957 271.033 312.069 270.86 312.146C270.687 312.222 270.499 312.261 270.31 312.26C267.03 312.21 265.45 312.01 261.31 312.01C258.76 312.01 255.04 312.28 251.53 312.28C248.02 312.28 247.82 308.8 249.29 308.49C255.85 307.07 256.89 305.13 259.1 303.27C259.49 302.936 259.987 302.752 260.5 302.75Z" fill="#263238"/>
<path d="M248.14 298.89L256.69 294.96C256.835 294.891 257.001 294.877 257.155 294.921C257.31 294.965 257.443 295.064 257.53 295.2L261.62 301.52C261.715 301.682 261.776 301.863 261.797 302.051C261.818 302.238 261.8 302.428 261.744 302.608C261.687 302.788 261.594 302.954 261.469 303.096C261.344 303.237 261.191 303.351 261.02 303.43C258.02 304.75 256.5 305.24 252.74 306.97C250.43 308.03 245.74 310.47 242.56 311.97C239.38 313.47 237.74 310.36 238.94 309.46C244.31 305.46 245.85 302.59 247.08 299.98C247.288 299.499 247.665 299.111 248.14 298.89V298.89Z" fill="#263238"/>
<path opacity="0.2" d="M243.9 281.38L246.56 291.44L254.62 289.15L252.07 279.48L243.9 281.38Z" fill="black"/>
<path opacity="0.2" d="M270.2 284.33H261.82L261.49 294.33H269.87L270.2 284.33Z" fill="black"/>
<path d="M274 64.3605C277.48 65.1305 281.2 77.6404 281.2 77.6404L271.36 88.1105C271.36 88.1105 263.19 76.3504 264.86 72.0304C266.55 67.5204 269.85 63.4605 274 64.3605Z" fill="#263238"/>
<path opacity="0.4" d="M268.44 72.33C266.68 70.72 265.49 71.2 264.68 72.48C263.88 76.2 268.62 83.99 270.53 86.94C271.41 83.42 272.42 76 268.44 72.33Z" fill="black"/>
<path d="M229.91 64.6104C229.91 64.6104 225.91 66.0104 233.91 115.16H267.91C267.34 101.32 267.32 92.7804 273.91 64.3604C269.146 63.3775 264.317 62.7424 259.46 62.4604C254.32 62.09 249.16 62.09 244.02 62.4604C237.43 63.0704 229.91 64.6104 229.91 64.6104Z" fill="#263238"/>
<path opacity="0.4" d="M229.6 83.4703C229.82 85.8603 230.11 88.5503 230.49 91.5903C233.28 89.0803 235.56 81.9403 234.72 77.7803C232.727 79.3981 230.999 81.318 229.6 83.4703Z" fill="black"/>
<path d="M233.24 76.0005C231.405 80.6182 229.339 85.1406 227.05 89.5505C224.787 94.1197 222.109 98.4713 219.05 102.551L218.41 103.34L218.09 103.73C217.98 103.86 217.89 103.981 217.72 104.161C217.118 104.817 216.448 105.407 215.72 105.921C214.434 106.811 213.026 107.511 211.54 108.001C208.948 108.828 206.258 109.306 203.54 109.421C198.45 109.623 193.354 109.169 188.38 108.071L188.93 103.87C191.23 103.87 193.64 103.87 195.93 103.68C198.23 103.567 200.521 103.314 202.79 102.921C204.897 102.592 206.958 102.014 208.93 101.201C209.726 100.86 210.47 100.409 211.14 99.8605C211.395 99.6464 211.627 99.405 211.83 99.1405C211.83 99.1405 211.95 98.9805 212.03 98.8705L212.26 98.5405L212.73 97.8805C215.239 94.0046 217.475 89.958 219.42 85.7705C221.42 81.5205 223.42 77.1105 225.25 72.7705L233.24 76.0005Z" fill="#803E3C"/>
<path d="M229.91 64.6103C225.74 65.6103 220.62 77.0503 220.62 77.0503L229.26 89.7503C229.26 89.7503 240.77 75.2603 239.4 70.8403C238 66.2303 235 63.3703 229.91 64.6103Z" fill="#263238"/>
<path d="M191.33 104.51L184.12 101.18L183.4 108.35C183.4 108.35 189.4 110.12 192.4 108.35L191.33 104.51Z" fill="#7F3E3B"/>
<path d="M179.81 100.46L179.12 105.92L183.4 108.35L184.12 101.18L179.81 100.46Z" fill="#7F3E3B"/>
<path d="M262.82 35.36C261.29 43.53 260.82 47.03 256.14 50.74C249.14 56.32 239.39 52.66 238.45 44.2C237.59 36.58 240.23 24.5 248.7 22.2C250.566 21.6853 252.533 21.6571 254.412 22.1181C256.292 22.5792 258.022 23.5141 259.438 24.8337C260.854 26.1533 261.908 27.8136 262.5 29.6563C263.093 31.499 263.203 33.4627 262.82 35.36V35.36Z" fill="#7F3E3B"/>
<path d="M244.87 37.0802C244.4 41.2502 244.22 52.0802 253.38 52.4202C264.59 52.8302 267.95 43.2502 266.95 39.4202C272.79 34.6702 273.63 26.5002 267.07 20.2502C260.51 14.0002 246.07 17.4902 242.07 23.5802C237 31.1302 244.87 37.0802 244.87 37.0802Z" fill="#263238"/>
<path d="M256.1 22.68C255.56 18.28 255.98 15.25 260.1 15.25C264.22 15.25 269.84 16.74 271.9 20.95C273.96 25.16 274.13 31.75 268.38 31.08C262.63 30.41 256.75 27.94 256.1 22.68Z" fill="#754FFE"/>
<path d="M262.48 21.6201C261.48 16.3801 266.17 1.62007 277.56 0.620068C282.84 0.170068 285.28 5.85007 282.56 6.79007C287.56 6.73007 290.76 13.3401 286.1 14.3301C289.78 16.6901 288.87 21.5301 283.62 23.9101C279.71 25.7101 263.83 28.8801 262.48 21.6201Z" fill="#263238"/>
<path d="M274.65 27.25C270.98 27.25 267.15 26.71 264.77 25.12C264.105 24.7189 263.544 24.1649 263.136 23.5041C262.727 22.8433 262.482 22.0946 262.42 21.32C262.417 21.2543 262.439 21.1898 262.482 21.1397C262.525 21.0896 262.585 21.0575 262.65 21.05C262.683 21.0458 262.717 21.0486 262.749 21.0581C262.781 21.0677 262.811 21.0838 262.836 21.1054C262.861 21.1271 262.882 21.1538 262.896 21.1838C262.911 21.2139 262.919 21.2467 262.92 21.28C262.98 21.979 263.205 22.6539 263.575 23.2498C263.945 23.8458 264.45 24.3461 265.05 24.71C269.58 27.71 280.05 26.71 283.31 25.71C286.13 24.79 288.04 23 288.42 20.94C288.539 20.1841 288.445 19.4101 288.151 18.704C287.856 17.9979 287.371 17.3873 286.75 16.94C286.726 16.9176 286.707 16.8905 286.694 16.8604C286.681 16.8303 286.674 16.7978 286.674 16.765C286.674 16.7322 286.681 16.6998 286.694 16.6697C286.707 16.6396 286.726 16.6125 286.75 16.59C286.797 16.5442 286.86 16.5186 286.925 16.5186C286.991 16.5186 287.053 16.5442 287.1 16.59C287.798 17.0993 288.341 17.7927 288.668 18.5927C288.994 19.3926 289.092 20.2677 288.95 21.12C288.54 23.37 286.51 25.29 283.51 26.27C280.615 26.9997 277.634 27.3294 274.65 27.25V27.25Z" fill="#263238"/>
<path d="M242.32 35.9997C241.389 37.3059 241.005 38.9243 241.25 40.5097C241.58 42.6097 243.62 42.7497 245.1 41.4097C246.58 40.0697 247.87 37.6497 246.78 35.9097C246.538 35.5338 246.203 35.2262 245.809 35.0161C245.414 34.806 244.972 34.7005 244.525 34.7095C244.078 34.7185 243.641 34.8418 243.255 35.0677C242.869 35.2935 242.547 35.6143 242.32 35.9997Z" fill="#7F3E3B"/>
<path d="M242.89 115.16C242.89 115.16 247.75 172.65 252.8 205.05C256.87 231.22 260.09 292.39 260.09 292.39H271.51C271.51 292.39 275.57 233.05 273.51 207.17C268.28 141.67 279.95 136.33 267.94 115.17L242.89 115.16Z" fill="#754FFE"/>
<path opacity="0.4" d="M257.27 136.89C252.744 141.64 249.092 147.151 246.48 153.17C247.81 166.09 249.39 180.43 251.07 192.99C257.964 175.143 260.1 155.811 257.27 136.89V136.89Z" fill="black"/>
<path d="M234.9 114.8C234.9 114.8 224.35 177.59 222.69 205.89C226.83 232.06 243.77 287.38 243.77 287.38L254.16 283.61C254.16 283.61 248.41 223.29 242.16 206.78C256.23 159.41 266.57 147.43 263.56 115.16C256.35 115.16 234.9 114.8 234.9 114.8Z" fill="#754FFE"/>
<path d="M242.38 290.14L256.42 286.33L255.62 280.73L240.59 284.8L242.38 290.14Z" fill="#263238"/>
<path d="M258.52 292.62H273.07L273.83 287.52L258.44 287L258.52 292.62Z" fill="#263238"/>
<path d="M268.44 113.16L269.97 116.21C270.09 116.45 269.81 116.69 269.42 116.69H233.74C233.44 116.69 233.18 116.54 233.16 116.34L232.85 113.34C232.85 113.13 233.1 112.95 233.43 112.95H267.88C267.984 112.936 268.089 112.948 268.187 112.984C268.284 113.021 268.371 113.081 268.44 113.16V113.16Z" fill="#754FFE"/>
<path opacity="0.5" d="M268.44 113.16L269.97 116.21C270.09 116.45 269.81 116.69 269.42 116.69H233.74C233.44 116.69 233.18 116.54 233.16 116.34L232.85 113.34C232.85 113.13 233.1 112.95 233.43 112.95H267.88C267.984 112.936 268.089 112.948 268.187 112.984C268.284 113.021 268.371 113.081 268.44 113.16V113.16Z" fill="black"/>
<path d="M263.81 117H264.73C264.92 117 265.06 116.9 265.05 116.79L264.61 112.79C264.61 112.67 264.44 112.58 264.26 112.58H263.33C263.15 112.58 263.01 112.67 263.02 112.79L263.45 116.79C263.47 116.92 263.63 117 263.81 117Z" fill="#754FFE"/>
<path d="M251.43 87.8801C251.32 87.8785 251.213 87.8417 251.125 87.7752C251.037 87.7087 250.972 87.6158 250.94 87.5101C247.68 75.4501 240.94 65.5101 237.67 64.0101C237.416 63.8541 237.111 63.8038 236.82 63.8701C236.76 63.9019 236.693 63.9211 236.625 63.9263C236.557 63.9316 236.489 63.9228 236.424 63.9006C236.36 63.8784 236.3 63.8432 236.25 63.7972C236.2 63.7512 236.159 63.6954 236.131 63.6332C236.103 63.571 236.088 63.5036 236.087 63.4354C236.086 63.3671 236.099 63.2994 236.125 63.2363C236.151 63.1733 236.19 63.1163 236.239 63.0688C236.288 63.0212 236.346 62.9843 236.41 62.9601C236.683 62.8598 236.975 62.8203 237.265 62.8445C237.556 62.8687 237.837 62.9559 238.09 63.1001C241.55 64.7401 248.39 74.5401 251.81 86.8701C254.26 86.8701 258.04 86.5401 258.96 86.4601C260.1 85.1001 268.48 74.6201 265.35 63.1501C265.332 63.0871 265.327 63.0211 265.335 62.956C265.342 62.8908 265.363 62.828 265.396 62.7711C265.429 62.7142 265.472 62.6645 265.525 62.6248C265.577 62.5851 265.636 62.5563 265.7 62.5401C265.827 62.5064 265.963 62.5242 266.077 62.5898C266.191 62.6553 266.275 62.7632 266.31 62.8901C269.8 75.6501 259.68 87.1601 259.57 87.2701C259.531 87.3187 259.482 87.3587 259.427 87.388C259.372 87.4172 259.312 87.4349 259.25 87.4401C259.2 87.4401 254.21 87.8801 251.43 87.8801Z" fill="#754FFE"/>
<path d="M268 94.9404C262.55 84.7304 260.32 84.0104 259.35 80.7304C260.085 78.8963 261.134 77.2043 262.45 75.7304C261.79 75.5404 260.37 75.2604 259.45 75.0904C259.55 74.6404 259.66 74.2004 259.76 73.7704C258.759 73.6584 257.747 73.7057 256.76 73.9104V72.9104C255.49 72.6341 254.186 72.5498 252.89 72.6604C253.004 73.1338 253.114 73.6138 253.22 74.1004C252.22 74.2904 250.7 74.6004 249.97 74.8104C251.389 76.417 252.431 78.3199 253.02 80.3804C250.08 85.4304 238.66 117.89 257.24 120.38C275.82 122.87 273.44 105.16 268 94.9404Z" fill="#754FFE"/>
<path opacity="0.4" d="M268 94.9404C262.55 84.7304 260.32 84.0104 259.35 80.7304C260.085 78.8963 261.134 77.2043 262.45 75.7304C261.79 75.5404 260.37 75.2604 259.45 75.0904C259.55 74.6404 259.66 74.2004 259.76 73.7704C258.759 73.6584 257.747 73.7057 256.76 73.9104V72.9104C255.49 72.6341 254.186 72.5498 252.89 72.6604C253.004 73.1338 253.114 73.6138 253.22 74.1004C252.22 74.2904 250.7 74.6004 249.97 74.8104C251.389 76.417 252.431 78.3199 253.02 80.3804C250.08 85.4304 238.66 117.89 257.24 120.38C275.82 122.87 273.44 105.16 268 94.9404Z" fill="white"/>
<path d="M252.26 79.4099C252.145 79.9249 252.094 80.4523 252.11 80.9799C252.11 81.3499 253.11 81.5999 254.22 81.7099C255.33 81.8199 259.99 81.9999 259.84 81.4799C259.69 80.9599 260.07 80.2499 260.09 79.8099C260.11 79.3699 258.24 79.3499 256.67 79.4099C255.1 79.4699 252.57 78.8499 252.26 79.4099Z" fill="#754FFE"/>
<path d="M241.45 117H242.37C242.55 117 242.69 116.9 242.68 116.79L242.25 112.79C242.25 112.67 242.08 112.58 241.89 112.58H241C240.82 112.58 240.68 112.67 240.69 112.79L241.12 116.79C241.1 116.92 241.26 117 241.45 117Z" fill="#754FFE"/>
</svg>
