<?xml version="1.0" encoding="UTF-8"?>
<svg version="1.1" viewBox="0 0 2048 500" width="1280" height="1280" xmlns="http://www.w3.org/2000/svg">
<path transform="translate(239)" d="m0 0h36l25 3 24 5 23 7 21 9 19 10 18 12 13 10 12 11 8 7 11 12 13 17 10 15 12 22 8 19 7 21 5 21 3 20 1 13v30l-2 21-6 29-6 19-8 20-8 16-8 14-12 17-8 10-11 12-16 16-14 11-14 10-21 12-19 9-22 8-23 6-23 4-26 2h-19l-27-2-23-4-25-7-20-8-19-9-18-11-16-12-13-11-21-21-13-17-12-18-10-18-10-24-7-22-5-23-2-16-1-16v-19l2-26 5-26 8-26 9-21 11-21 10-15 12-16 14-15 13-13 14-11 15-11 21-12 19-9 25-9 25-6 26-4z" fill="#383637"/>
<path transform="translate(239)" d="m0 0h36l25 3 24 5 23 7 21 9 19 10 18 12 13 10 12 11 8 7 11 12 13 17 10 15 12 22 8 19 7 21 5 21 3 20 1 13v30l-2 21-6 29-6 19-8 20-8 16-8 14-12 17-8 10-11 12-16 16-14 11-14 10-21 12-19 9-22 8-23 6-23 4-26 2h-19l-27-2-23-4-25-7-20-8-19-9-18-11-16-12-13-11-21-21-13-17-12-18-10-18-10-24-7-22-5-23-2-16-1-16v-19l2-26 5-26 8-26 9-21 11-21 10-15 12-16 14-15 13-13 14-11 15-11 21-12 19-9 25-9 25-6 26-4zm-1 11-23 3-23 6-21 8-20 10-17 11-12 9-14 12-14 14-9 11-10 13-11 18-11 21-10 26-6 23-4 23-1 10v40l3 23 5 23 8 24 9 20 8 15 7 11 10 14 9 11 12 13 7 7 11 9 13 10 19 12 16 8 16 7 22 7 20 4 17 2h27l22-3 17-4 23-8 19-9 18-11 19-14 15-14 12-12 11-14 10-14 9-15 8-15 8-20 8-26 5-28 1-10v-41l-3-23-5-23-8-24-9-20-9-17-8-12-12-16-12-14-12-12-11-9-13-10-19-12-16-8-19-8-19-6-20-4-17-2z" fill="#F8BB39"/>
<path transform="translate(1265,170)" d="m0 0h32l3 8 39 117 3 10 2-3 14-42 15-43 16-47h29v161h-21v-132l-18 53-15 43-12 35-1 1h-19l-4-9-29-87-13-38-1 134h-20z" fill="#44A962"/>
<path transform="translate(118,106)" d="m0 0 2 3 5 16 5 10 4 5 6 3 8 1-3 10-1 3v23l3 156 3-14 2-22 2 3 2 13 5 15 1 2v-19l-3-151-1-11-4-8v-3l20-4 6-1 1 17 3 154 1 39 4 13 5 7 4 3-2 4-12 9-7 10-4 9-5-5-5-12-3-16v-7h-2l-2 6-9 24-4 6-4-2-6-9-4-13-2-18-4-201-5-39z" fill="#5B82C2"/>
<path transform="translate(324,87)" d="m0 0 4 2 5 10 3 12 2 15 5-10 6-17 6-10 5 5 4 6 4 13 2 14 1 36 3 168 6 50-2-1-6-20-7-11-5-4-10-2 1-6 2-6v-52l-2-94-1-34-3 14-2 22h-1l-3-18-5-14-1-2v27l3 142 1 13 4 7v4l-20 4-6 1-4-202-2-14-4-10-5-5-3-2 1-3 9-6 5-5 7-10z" fill="#43A961"/>
<path transform="translate(565,169)" d="m0 0h74l16 2 9 4 6 4 8 8 6 12 2 8v23l-4 13-7 11-10 8-11 5-12 2-45 1v60h-32zm32 27v46h34l9-2 8-5 4-6 2-8-1-9-4-8-9-6-14-2z" fill="#5C82C2"/>
<path transform="translate(256,25)" d="m0 0h1l1 29 1 56h16l-1 7-5 13-5 1-5-1 1 15 3 132 1 54h15l-1 4-15 29-11 26-8 26-4 21-2 2-1-36v-49h-16l6-21 1-1h8l-1-15-2-125-1-61-7 1h-11l1-5 10-16 12-24 8-21 6-20 4-19z" fill="#EA5145"/>
<path transform="translate(698,213)" d="m0 0h32l4 10 23 69 1 2 17-52 9-28 1-1h31l-3 10-17 48-18 50-11 30-6 11-7 8-9 5-16 3h-9l-12-2-3-24h19l8-4 4-5 4-9v-7l-15-40-25-67z" fill="#5E84C3"/>
<path transform="translate(1487,212)" d="m0 0h20l13 4 11 7 7 7 7 12 4 14 1 7v15h-87l3 15 6 12 8 7 9 4 10 1 11-2 8-5 6-7 5-9 16 1 4 1-1 6-5 10-8 10-11 7-12 4-6 1h-16l-16-4-10-6-8-7-7-11-4-11-2-10v-23l4-17 7-13 6-7 10-7 12-5zm5 16-10 3-9 7-6 9-3 11v3l20 1h44l1-5-3-11-6-9-8-6-10-3z" fill="#45AA62"/>
<path transform="translate(961,212)" d="m0 0h19l11 3 10 5 10 9 7 11 5 16 1 8v14h-87l3 15 6 12 8 7 9 4 10 1 11-2 8-5 6-7 4-9h9l12 2-3 10-6 10-4 5-10 7-10 4-10 2h-16l-16-4-9-5-10-9-6-9-5-15-1-6v-25l4-16 6-12 8-9 11-7 10-4zm5 16-10 3-8 6-6 8-3 7-1 9 20 1h44l1-5-4-13-6-8-7-5-10-3z" fill="#EA5344"/>
<path transform="translate(1160,170)" d="m0 0h19v57l11-9 8-4 7-2h18l13 4 8 6 6 8 3 9 1 6v86h-20v-69l-1-15-4-10-5-4-7-3h-13l-9 3-7 5-5 8-2 7-1 9-1 69h-19z" fill="#EA5244"/>
<path transform="translate(1798,212)" d="m0 0h19l12 3 11 6 8 7 7 10 5 13 2 13v16l-2 14-4 12-6 9-5 6-11 7-10 4-10 2h-14l-16-4-10-6-10-10-8-16-3-17v-17l3-16 5-12 8-10 11-8 9-4zm5 16-10 3-8 6-6 7-4 10-2 13v13l3 15 4 8 7 8 12 6 10 1 10-2 10-6 6-7 4-8 3-16v-13l-2-12-4-10-9-10-10-5-5-1z" fill="#44A962"/>
<path transform="translate(1988,212)" d="m0 0h20l13 3 10 5 7 7 5 12v6l-13 2h-6l-4-10-6-5-10-3h-12l-11 3-6 7v8l2 5 5 2 16 5 27 8 12 6 8 9 3 9v12l-5 12-7 8-9 6-12 4-7 1h-16l-14-3-10-5-7-6-6-10-4-13 7-2 13-1 4 11 5 6 8 4 12 2 15-2 9-6 3-7-1-9-6-5-16-5-27-8-10-5-5-4-6-10-1-4v-13l4-10 8-9 12-6z" fill="#45A962"/>
<path transform="translate(802,170)" d="m0 0h127v18l-1 1h-52v142h-21v-142h-53z" fill="#EA5144"/>
<path transform="translate(1620,212)" d="m0 0h17l13 4 8 6 5 6 4 9 1 6v88h-19l-1-75-2-13-4-7-8-5-3-1h-13l-11 4-6 5-4 8-2 7-1 13-1 64h-19v-117h17l1 2-1 14h2l2-4 7-7 10-5z" fill="#44A962"/>
<path transform="translate(1086,212)" d="m0 0h19l13 4 9 6 8 9 5 11 1 7-19 3-5-12-5-6-8-4-4-1h-9l-10 3-6 4-6 7-4 10-2 13v15l2 12 5 12 7 7 9 4 9 1 11-2 9-6 6-12 2-8 14 1 6 1-2 10-4 10-7 9-8 7-11 5-10 2h-14l-12-3-12-6-10-10-8-16-3-16v-19l3-16 5-12 8-11 10-7 9-4z" fill="#EA5344"/>
<path transform="translate(120,80)" d="m0 0 3 3 5 9 7 6 2 1h13l19-6 4-1h9l10 5 10 9 8 14 5 15 3 21v22l-3 29-4 17-6 12-5 4-6-1-7-8-3-6v-2l8 4 6-1 5-6 4-11 3-15v-29l-4-17-5-8-8-4h-16l-18 4h-15l-10-5-7-8-4-8-3-13-1-15z" fill="#5B82C2"/>
<path transform="translate(299,247)" d="m0 0 5 2 5 6 4 7-1 2-6-4-7 1-6 8-4 13-2 11-1 19 2 16 3 10 5 9 8 4 11 1 26-5h12l10 5 8 9 5 15 2 17v10l-2 4-6-11-4-5-5-3-8-1-16 4-13 4h-8l-12-6-10-10-8-15-5-19-1-8v-37l3-23 4-16 5-9 4-4z" fill="#43A961"/>
<path transform="translate(1719,174)" d="m0 0h2v40h20v16h-20l1 75 2 6 7 3h10l2 8 1 9-8 2h-14l-10-3-6-5-3-6-1-5v-84h-15v-16h15v-29z" fill="#45A962"/>
<path transform="translate(1922,212)" d="m0 0h12l11 4 3 3-6 16-3 1-10-3-9 1-7 4-5 9-3 17-1 67h-20v-76l1-41h17l1 16 7-10 7-6z" fill="#48AB65"/>
</svg>
