<?xml version="1.0" encoding="UTF-8"?>
<svg version="1.1" viewBox="0 0 2048 288" width="1280" height="1280" xmlns="http://www.w3.org/2000/svg">
<path transform="translate(966,2)" d="m0 0h44l4 10 59 177 14-41 16-47 15-43 19-55 1-1h39v221h-28l-1-181-15 44-15 43-17 49-16 45h-27l-9-25-12-35-12-36-24-71-6-17-1 184h-28z" fill="#44A962"/>
<path transform="translate(0)" d="m0 0h87l28 2 14 3 13 7 11 10 9 14 5 17 1 8v17l-3 16-5 12-8 11-7 7-11 7-9 4-15 3-11 1-54 1-1 83h-44zm45 38-1 1v63h35l20-2 10-4 7-6 5-9 1-4v-15l-4-10-7-7-10-5-5-1-14-1z" fill="#5C82C2"/>
<path transform="translate(184,62)" d="m0 0h45l36 108 1 4 4-10 23-71 10-31h44l-7 21-20 55-20 56-20 55-8 16-7 9-7 6-11 5-10 3h-33l-7-3-3-27v-5l22 1 10-3 6-4 6-9 5-12-1-7-27-72-26-70-5-13z" fill="#5D82C2"/>
<path transform="translate(553,59)" d="m0 0h13l17 3 12 5 11 8 7 6 9 13 5 11 4 14 2 22v8l-1 1h-120l4 19 5 12 6 8 9 8 12 5 4 1h17l10-3 10-6 7-8 8-15 25 3 2 1-1 7-8 16-8 10-12 9-13 6-13 3-9 1h-12l-15-2-15-5-13-8-12-12-8-14-5-14-2-11-1-11v-11l2-18 4-15 8-16 11-13 11-8 13-6 11-3zm-2 23-10 3-10 6-8 8-7 14-2 9v5h90l-3-16-4-9-6-8-9-7-9-4-5-1z" fill="#EB5248"/>
<path transform="translate(1280,59)" d="m0 0h13l13 2 14 5 11 7 10 9 7 10 6 12 4 15 2 18v12l-1 1-119 1 3 18 5 12 7 9 7 6 10 5 7 2h18l12-4 9-7 7-9 6-12 25 3 3 2-5 13-7 12-8 9-10 7-13 6-13 3-9 1h-12l-15-2-15-5-14-9-10-10-8-13-5-13-3-16v-30l3-16 6-16 8-12 12-12 14-8 12-4zm-2 23-10 3-10 6-7 7-6 10-3 9-1 10h90l-2-14-5-12-9-10-10-6-9-3z" fill="#44A962"/>
<path transform="translate(820,2)" d="m0 0h27v78l11-9 9-6 15-5 8-1h11l13 2 13 5 11 8 7 10 4 12 2 15v112h-27l-1-106-2-13-5-10-7-6-10-4h-18l-11 4-9 6-6 7-4 9-2 9-1 14-1 90h-27z" fill="#EB5248"/>
<path transform="translate(1709,59)" d="m0 0h13l14 2 14 5 10 6 10 9 7 8 6 10 5 14 3 21v15l-2 18-4 15-7 14-9 11-12 9-13 6-15 4-9 1h-10l-14-2-15-5-10-6-10-9-7-8-8-16-4-15-2-21 1-19 4-18 5-12 7-11 11-11 13-8 15-5zm-2 23-12 4-11 8-7 9-4 8-4 15-1 10v14l2 15 4 12 5 9 7 8 11 7 10 3h17l12-4 10-7 7-8 6-12 3-12 1-8v-21l-3-16-5-12-7-9-8-7-11-5-5-1z" fill="#44A962"/>
<path transform="translate(1972,59)" d="m0 0h14l19 3 15 6 9 7 6 7 5 12 2 10-9 2-18 2-4-11-4-6-7-5-10-3h-22l-11 3-8 7-3 8 2 9 5 5 8 4 52 15 15 6 9 7 7 9 4 12v15l-4 12-6 10-9 9-16 8-15 4-9 1h-13l-16-2-13-4-11-6-10-10-6-10-5-15v-5l26-4 3 9 5 10 9 8 10 4 5 1h20l11-3 8-5 6-8 1-4v-8l-4-8-12-6-43-12-19-7-11-8-7-10-4-13v-11l3-11 6-10 9-9 14-7 12-3z" fill="#44A962"/>
<path transform="translate(1462,59)" d="m0 0h12l16 3 16 8 7 7 5 8 4 12 1 8v118h-27l-1-109-3-14-6-9-9-5-6-2h-18l-11 4-9 6-6 7-4 11-2 11-1 100h-27v-160h24l1 20 9-10 14-9 13-4z" fill="#44A962"/>
<path transform="translate(326,2)" d="m0 0h175v26h-73v195h-29v-195h-73z" fill="#EB5248"/>
<path transform="translate(725,59)" d="m0 0h12l14 2 13 5 11 7 7 7 7 11 5 14 1 4-5 2-22 3-6-15-6-8-10-6-6-2h-17l-10 3-10 6-7 8-6 13-3 14v32l3 14 5 12 9 10 10 6 8 2h16l12-4 9-7 6-10 4-13 1-4 14 1 13 2-1 8-4 12-7 13-9 10-10 7-11 5-11 3-8 1h-11l-14-2-12-4-11-6-12-11-7-10-6-13-4-16-1-6v-30l4-20 5-13 7-12 11-11 12-7 15-5z" fill="#EB5248"/>
<path transform="translate(1595,7)" d="m0 0h1l1 55 27 1v21l-27 1v94l1 13 2 5 6 2h18l4 24-9 2h-24l-11-4-7-5-5-8-2-9-1-11v-104h-19l-1-1v-20h20v-40l16-10z" fill="#44A962"/>
<path transform="translate(1878,59)" d="m0 0h8l13 3 10 5-1 6-8 20-11-4-5-1h-7l-10 3-8 7-5 11-3 13-1 12-1 89h-27v-160h25v22l9-13 8-8 9-4z" fill="#44A962"/>
</svg>
