<svg width="126" height="35" viewBox="0 0 126 35" fill="none" xmlns="http://www.w3.org/2000/svg">
<path d="M23.7163 9.44709H18.8022C18.6621 8.64122 18.4036 7.92732 18.027 7.3054C17.6503 6.67472 17.1817 6.14039 16.6211 5.70241C16.0605 5.26444 15.421 4.93596 14.7028 4.71698C13.9933 4.48923 13.2268 4.37536 12.4034 4.37536C10.9406 4.37536 9.64418 4.74325 8.5142 5.47905C7.38423 6.20608 6.49953 7.27474 5.86009 8.68501C5.22064 10.0865 4.90092 11.799 4.90092 13.8224C4.90092 15.8809 5.22064 17.6153 5.86009 19.0256C6.50829 20.4271 7.39299 21.487 8.5142 22.2053C9.64418 22.9148 10.9362 23.2695 12.3903 23.2695C13.1961 23.2695 13.9495 23.1644 14.6502 22.9542C15.3597 22.7352 15.9948 22.4155 16.5554 21.995C17.1248 21.5746 17.6022 21.0578 17.9876 20.4446C18.3817 19.8314 18.6533 19.1307 18.8022 18.3423L23.7163 18.3686C23.5323 19.6475 23.1338 20.8475 22.5206 21.9688C21.9162 23.09 21.1235 24.0798 20.1424 24.9382C19.1613 25.7879 18.0139 26.4536 16.6999 26.9354C15.386 27.4084 13.9276 27.6449 12.3246 27.6449C9.95952 27.6449 7.84849 27.0974 5.99148 26.0025C4.13447 24.9076 2.67164 23.3265 1.60298 21.2592C0.534328 19.192 0 16.7131 0 13.8224C0 10.9231 0.538707 8.44413 1.61612 6.38565C2.69354 4.31842 4.16075 2.73733 6.01776 1.6424C7.87476 0.547467 9.97704 0 12.3246 0C13.8224 0 15.2152 0.210227 16.5028 0.630681C17.7905 1.05114 18.938 1.66868 19.9453 2.48331C20.9527 3.28918 21.7804 4.279 22.4286 5.45277C23.0856 6.61778 23.5148 7.94922 23.7163 9.44709Z" fill="white"/>
<path d="M36.7733 27.6712C34.8025 27.6712 33.0944 27.2376 31.6491 26.3704C30.2037 25.5032 29.0825 24.29 28.2854 22.7308C27.4971 21.1716 27.1029 19.3497 27.1029 17.2649C27.1029 15.1802 27.4971 13.3538 28.2854 11.7859C29.0825 10.2179 30.2037 9.00036 31.6491 8.13317C33.0944 7.26598 34.8025 6.83239 36.7733 6.83239C38.7442 6.83239 40.4523 7.26598 41.8976 8.13317C43.343 9.00036 44.4598 10.2179 45.2481 11.7859C46.0452 13.3538 46.4438 15.1802 46.4438 17.2649C46.4438 19.3497 46.0452 21.1716 45.2481 22.7308C44.4598 24.29 43.343 25.5032 41.8976 26.3704C40.4523 27.2376 38.7442 27.6712 36.7733 27.6712ZM36.7996 23.8608C37.8683 23.8608 38.7617 23.5674 39.48 22.9805C40.1983 22.3848 40.7326 21.5877 41.083 20.5891C41.4421 19.5906 41.6217 18.4781 41.6217 17.2518C41.6217 16.0167 41.4421 14.8999 41.083 13.9013C40.7326 12.8939 40.1983 12.0924 39.48 11.4968C38.7617 10.9012 37.8683 10.6033 36.7996 10.6033C35.7047 10.6033 34.7937 10.9012 34.0667 11.4968C33.3484 12.0924 32.8097 12.8939 32.4506 13.9013C32.1002 14.8999 31.925 16.0167 31.925 17.2518C31.925 18.4781 32.1002 19.5906 32.4506 20.5891C32.8097 21.5877 33.3484 22.3848 34.0667 22.9805C34.7937 23.5674 35.7047 23.8608 36.7996 23.8608Z" fill="white"/>
<path d="M63.3441 18.7891V7.09517H68.1005V27.277H63.4886V23.69H63.2784C62.8229 24.82 62.074 25.7441 61.0316 26.4624C59.998 27.1806 58.7235 27.5398 57.2081 27.5398C55.8854 27.5398 54.716 27.2463 53.6999 26.6594C52.6926 26.0638 51.9042 25.201 51.3349 24.071C50.7655 22.9323 50.4808 21.5571 50.4808 19.9453V7.09517H55.2372V19.2095C55.2372 20.4884 55.5876 21.5045 56.2884 22.2578C56.9891 23.0111 57.9089 23.3878 59.0476 23.3878C59.7483 23.3878 60.4272 23.217 61.0842 22.8754C61.7411 22.5337 62.2798 22.0257 62.7003 21.3512C63.1295 20.668 63.3441 19.8139 63.3441 18.7891Z" fill="white"/>
<path d="M72.9916 27.277V7.09517H77.6034V10.4588H77.8137C78.1815 9.2938 78.8122 8.39595 79.7057 7.76527C80.6079 7.12583 81.6372 6.80611 82.7934 6.80611C83.0562 6.80611 83.3496 6.81925 83.6737 6.84552C84.0066 6.86304 84.2825 6.8937 84.5015 6.9375V11.3129C84.3 11.2428 83.9803 11.1815 83.5424 11.1289C83.1131 11.0676 82.6971 11.0369 82.2941 11.0369C81.4269 11.0369 80.6473 11.2253 79.9553 11.6019C79.2721 11.9698 78.7334 12.4822 78.3392 13.1392C77.945 13.7962 77.748 14.5539 77.748 15.4123V27.277H72.9916Z" fill="white"/>
<path d="M103.612 12.4297L99.2765 12.9027C99.1539 12.4647 98.9393 12.053 98.6327 11.6676C98.3349 11.2822 97.932 10.9712 97.4239 10.7347C96.9159 10.4982 96.2939 10.38 95.5582 10.38C94.5683 10.38 93.7362 10.5946 93.0617 11.0238C92.396 11.453 92.0675 12.0092 92.0763 12.6925C92.0675 13.2794 92.2821 13.7567 92.7201 14.1246C93.1668 14.4925 93.9026 14.7947 94.9275 15.0313L98.3699 15.767C100.28 16.1787 101.699 16.8313 102.627 17.7248C103.564 18.6183 104.037 19.7876 104.046 21.233C104.037 22.5031 103.665 23.6243 102.929 24.5966C102.202 25.5601 101.19 26.3134 99.8941 26.8565C98.5977 27.3996 97.1086 27.6712 95.4268 27.6712C92.9566 27.6712 90.9682 27.1544 89.4616 26.1207C87.9549 25.0784 87.0571 23.6287 86.768 21.7717L91.4062 21.3249C91.6164 22.2359 92.0631 22.9235 92.7464 23.3878C93.4296 23.852 94.3187 24.0842 95.4136 24.0842C96.5436 24.0842 97.4502 23.852 98.1334 23.3878C98.8254 22.9235 99.1714 22.3498 99.1714 21.6665C99.1714 21.0884 98.9481 20.611 98.5013 20.2344C98.0634 19.8577 97.3801 19.5687 96.4516 19.3672L93.0091 18.6445C91.0733 18.2416 89.6411 17.5627 88.7126 16.608C87.7841 15.6444 87.3242 14.4268 87.333 12.9553C87.3242 11.7114 87.6615 10.634 88.3447 9.72301C89.0367 8.80327 89.9959 8.09375 91.2222 7.59446C92.4573 7.08641 93.8807 6.83239 95.4925 6.83239C97.8575 6.83239 99.7189 7.33606 101.077 8.3434C102.443 9.35074 103.288 10.7128 103.612 12.4297Z" fill="white"/>
<path d="M107.824 34.7771L109.029 30.7771C110.029 30.7771 110.237 30.7859 110.78 30.7771C111.323 30.7683 111.8 30.7501 112.212 30.4173C112.633 30.0932 112.987 29.5501 113.276 28.788L113.684 27.6974L106.365 7.09517H111.411L116.062 22.3366H116.272L120.937 7.09517H125.995L117.915 29.7209C117.538 30.7895 117.039 31.7049 116.417 32.467C115.795 33.2378 115.033 33.8247 114.13 34.2276C113.237 34.6393 110.924 34.7771 110.924 34.7771H107.824Z" fill="white"/>
<path d="M9.5293 34.2771L110.029 30.7771V34.7771H10.0293L9.5293 34.2771Z" fill="white"/>
</svg>
