<svg width="127" height="36" viewBox="0 0 127 36" fill="none" xmlns="http://www.w3.org/2000/svg">
<path d="M24.687 10.17H19.7729C19.6328 9.36412 19.3744 8.65022 18.9977 8.0283C18.621 7.39762 18.1524 6.86329 17.5918 6.42531C17.0312 5.98734 16.3917 5.65886 15.6735 5.43988C14.964 5.21213 14.1975 5.09826 13.3741 5.09826C11.9113 5.09826 10.6149 5.46615 9.48491 6.20195C8.35494 6.92898 7.47023 7.99764 6.83079 9.40792C6.19135 10.8094 5.87163 12.5219 5.87163 14.5453C5.87163 16.6038 6.19135 18.3382 6.83079 19.7485C7.47899 21.15 8.3637 22.2099 9.48491 22.9282C10.6149 23.6377 11.9069 23.9924 13.361 23.9924C14.1668 23.9924 14.9202 23.8873 15.6209 23.6771C16.3304 23.4581 16.9655 23.1384 17.5261 22.7179C18.0955 22.2975 18.5729 21.7807 18.9583 21.1675C19.3525 20.5543 19.624 19.8536 19.7729 19.0652L24.687 19.0915C24.503 20.3704 24.1045 21.5704 23.4913 22.6917C22.8869 23.8129 22.0942 24.8027 21.1131 25.6611C20.132 26.5108 18.9846 27.1765 17.6706 27.6583C16.3567 28.1313 14.8983 28.3678 13.2953 28.3678C10.9302 28.3678 8.81919 27.8203 6.96218 26.7254C5.10517 25.6305 3.64234 24.0494 2.57369 21.9821C1.50503 19.9149 0.970703 17.436 0.970703 14.5453C0.970703 11.646 1.50941 9.16703 2.58683 7.10855C3.66424 5.04132 5.13145 3.46024 6.98846 2.3653C8.84547 1.27037 10.9477 0.7229 13.2953 0.7229C14.7931 0.7229 16.1859 0.933127 17.4735 1.35358C18.7612 1.77404 19.9087 2.39158 20.916 3.20621C21.9234 4.01208 22.7511 5.0019 23.3993 6.17567C24.0563 7.34068 24.4855 8.67212 24.687 10.17Z" fill="#0466C8"/>
<path d="M37.7441 28.3941C35.7732 28.3941 34.0651 27.9605 32.6198 27.0933C31.1745 26.2261 30.0532 25.0129 29.2561 23.4537C28.4678 21.8945 28.0736 20.0726 28.0736 17.9878C28.0736 15.9031 28.4678 14.0767 29.2561 12.5088C30.0532 10.9408 31.1745 9.72326 32.6198 8.85607C34.0651 7.98888 35.7732 7.55529 37.7441 7.55529C39.7149 7.55529 41.423 7.98888 42.8683 8.85607C44.3137 9.72326 45.4305 10.9408 46.2188 12.5088C47.016 14.0767 47.4145 15.9031 47.4145 17.9878C47.4145 20.0726 47.016 21.8945 46.2188 23.4537C45.4305 25.0129 44.3137 26.2261 42.8683 27.0933C41.423 27.9605 39.7149 28.3941 37.7441 28.3941ZM37.7703 24.5837C38.839 24.5837 39.7325 24.2903 40.4507 23.7034C41.169 23.1077 41.7033 22.3106 42.0537 21.312C42.4128 20.3135 42.5924 19.201 42.5924 17.9747C42.5924 16.7396 42.4128 15.6228 42.0537 14.6242C41.7033 13.6168 41.169 12.8153 40.4507 12.2197C39.7325 11.6241 38.839 11.3262 37.7703 11.3262C36.6754 11.3262 35.7644 11.6241 35.0374 12.2197C34.3191 12.8153 33.7804 13.6168 33.4213 14.6242C33.0709 15.6228 32.8957 16.7396 32.8957 17.9747C32.8957 19.201 33.0709 20.3135 33.4213 21.312C33.7804 22.3106 34.3191 23.1077 35.0374 23.7034C35.7644 24.2903 36.6754 24.5837 37.7703 24.5837Z" fill="#152C5B"/>
<path d="M64.3148 19.512V7.81807H69.0712V27.9999H64.4593V24.4129H64.2491C63.7936 25.5429 63.0447 26.467 62.0023 27.1853C60.9687 27.9035 59.6942 28.2627 58.1788 28.2627C56.8561 28.2627 55.6867 27.9692 54.6706 27.3823C53.6633 26.7867 52.8749 25.9239 52.3056 24.7939C51.7362 23.6552 51.4515 22.28 51.4515 20.6682V7.81807H56.2079V19.9324C56.2079 21.2113 56.5583 22.2274 57.2591 22.9807C57.9598 23.734 58.8796 24.1107 60.0183 24.1107C60.719 24.1107 61.3979 23.9399 62.0549 23.5983C62.7118 23.2566 63.2505 22.7486 63.671 22.0741C64.1002 21.3909 64.3148 20.5368 64.3148 19.512Z" fill="#152C5B"/>
<path d="M73.9623 27.9999V7.81807H78.5741V11.1817H78.7844C79.1523 10.0167 79.7829 9.11885 80.6764 8.48817C81.5786 7.84873 82.6079 7.52901 83.7641 7.52901C84.0269 7.52901 84.3203 7.54215 84.6444 7.56843C84.9773 7.58594 85.2532 7.6166 85.4722 7.6604V12.0358C85.2707 11.9657 84.951 11.9044 84.5131 11.8518C84.0838 11.7905 83.6678 11.7598 83.2648 11.7598C82.3976 11.7598 81.618 11.9482 80.926 12.3248C80.2428 12.6927 79.7041 13.2051 79.3099 13.8621C78.9158 14.5191 78.7187 15.2768 78.7187 16.1352V27.9999H73.9623Z" fill="#152C5B"/>
<path d="M104.583 13.1526L100.247 13.6256C100.125 13.1876 99.91 12.7759 99.6034 12.3905C99.3056 12.0051 98.9027 11.6941 98.3946 11.4576C97.8866 11.2211 97.2647 11.1029 96.5289 11.1029C95.539 11.1029 94.7069 11.3175 94.0324 11.7467C93.3667 12.1759 93.0382 12.7321 93.047 13.4154C93.0382 14.0023 93.2528 14.4796 93.6908 14.8475C94.1375 15.2154 94.8733 15.5176 95.8982 15.7542L99.3406 16.4899C101.25 16.9016 102.669 17.5542 103.598 18.4477C104.535 19.3412 105.008 20.5105 105.017 21.9559C105.008 23.226 104.636 24.3472 103.9 25.3195C103.173 26.283 102.161 27.0363 100.865 27.5794C99.5684 28.1225 98.0793 28.3941 96.3975 28.3941C93.9273 28.3941 91.9389 27.8773 90.4323 26.8436C88.9256 25.8013 88.0278 24.3516 87.7387 22.4946L92.3769 22.0478C92.5871 22.9588 93.0338 23.6464 93.7171 24.1107C94.4003 24.5749 95.2894 24.8071 96.3843 24.8071C97.5143 24.8071 98.4209 24.5749 99.1041 24.1107C99.7961 23.6464 100.142 23.0727 100.142 22.3895C100.142 21.8113 99.9188 21.3339 99.472 20.9573C99.0341 20.5806 98.3508 20.2916 97.4223 20.0901L93.9799 19.3674C92.044 18.9645 90.6118 18.2856 89.6833 17.3309C88.7548 16.3673 88.295 15.1497 88.3037 13.6782C88.295 12.4343 88.6322 11.3569 89.3154 10.4459C90.0074 9.52617 90.9666 8.81665 92.1929 8.31736C93.428 7.80931 94.8514 7.55529 96.4632 7.55529C98.8282 7.55529 100.69 8.05896 102.047 9.0663C103.414 10.0736 104.259 11.4357 104.583 13.1526Z" fill="#152C5B"/>
<path d="M108.794 35.5L110 31.5C111 31.5 111.208 31.5088 111.751 31.5C112.294 31.4912 112.771 31.473 113.183 31.1402C113.603 30.8161 113.958 30.273 114.247 29.5109L114.654 28.4203L107.336 7.81807H112.381L117.033 23.0595H117.243L121.907 7.81807H126.966L118.885 30.4438C118.509 31.5124 118.009 32.4278 117.387 33.1899C116.765 33.9607 116.003 34.5476 115.101 34.9505C114.208 35.3622 111.895 35.5 111.895 35.5H108.794Z" fill="#152C5B"/>
<path d="M10.5 35L111 31.5V35.5H11L10.5 35Z" fill="#152C5B"/>
</svg>
