<?xml version="1.0" encoding="UTF-8"?>
<svg version="1.1" viewBox="0 0 2048 498" width="1280" height="1280" xmlns="http://www.w3.org/2000/svg">
<path transform="translate(218)" d="m0 0h74l29 6 24 7 23 10 19 10 15 10 13 10 14 12 16 16 13 17 10 14 10 18 8 16 8 21 8 30 4 29v42l-5 32-7 24-9 24-8 16-8 14-8 12-10 13-11 12-7 8-7 7-11 9-14 11-16 10-23 12-20 8-25 8-28 7-16 3h-49l-24-5-35-10-25-10-23-12-19-13-10-8-10-9-19-19-9-11-13-18-12-21-10-23-7-21-6-25-2-11v-69l7-31 8-24 13-29 9-15 8-12 13-16 7-8 18-18 13-10 14-10 13-8 21-11 23-9 25-7z" fill="#3A3739"/>
<path transform="translate(218)" d="m0 0h74l29 6 24 7 23 10 19 10 15 10 13 10 14 12 16 16 13 17 10 14 10 18 8 16 8 21 8 30 4 29v42l-5 32-7 24-9 24-8 16-8 14-8 12-10 13-11 12-7 8-7 7-11 9-14 11-16 10-23 12-20 8-25 8-28 7-16 3h-49l-24-5-35-10-25-10-23-12-19-13-10-8-10-9-19-19-9-11-13-18-12-21-10-23-7-21-6-25-2-11v-69l7-31 8-24 13-29 9-15 8-12 13-16 7-8 18-18 13-10 14-10 13-8 21-11 23-9 25-7zm22 9-26 3-20 5-20 7-16 8-18 10-11 8-14 11-13 12-10 10-9 11-11 15-10 16-8 15-9 21-7 22-6 28-2 21v25l2 23 7 34 8 24 16 33 15 22 7 9 9 10 11 12 15 13 14 10 24 14 21 10 24 8 20 4 18 2h32l24-3 19-5 26-11 14-7 22-14 11-9 13-12 9-9 9-11 10-13 11-17 9-17 7-16 6-16 6-23 5-27 1-12v-23l-2-22-6-32-7-24-5-11-8-17-9-15-9-13-9-12-11-13-15-15-14-11-9-7-13-8-27-14-21-8-20-5-28-4z" fill="#EDB63B"/>
<path transform="translate(116,80)" d="m0 0 5 1 6 4 4 7 5 1h13l19-5 2-1h11l12 7 6 7 2 1 1 3 4 4 1 5 4 2 5 2-3 5v6l6 2 1 6v16l-1 30-2 16-4 15-4 11-5 9-6 5h-5l-8-6v101l2 15 6 10 4 10-4 6-6 4-8 9-3 7-3 2h-5l-6-5-4-8-3-8-3 1-4 13-5 5-4 1-5-3-7-14-3-9-3-19-2-38v-78l-1-39-1-49-2-15-1-5-1-17v-16l1-12z" fill="#5070A8"/>
<path transform="translate(323,89)" d="m0 0 5 3 3 4 2 13 1 10 4-1 9-20 5-6 5-1 4 6 4 13 2 12 1 16 1 96 2 64 2 35 2 46v10l-2 2-6-1-9-6h-10l-22 7h-13l-11-6-10-10-6-10-7-18-2-9v-12h2l1-4 2-33 2-5h1v18l2 25 4 11 5 6 6 3h10l2-5v-57l-1-54-1-96-12-18 1-4 4-5 8-6z" fill="#389C56"/>
<path transform="translate(1263,168)" d="m0 0h33l20 61 16 49 7 25 2-1 16-47 10-27 17-52 3-8h29v160h-20l-1-1v-129l-7 18-8 24-10 28-16 47-6 12-5 2-11-1-3-3-15-44-14-40-13-38-3-7v131l-1 1h-19l-1-1z" fill="#399D58"/>
<path transform="translate(256,27)" d="m0 0 2 1v75l1 3 13 1 1 1v9l-3 8-5 4-5 1v34l2 136 1 23 9 3 2 1 1 6-5 12-16 34-6 16-4 20-1 2h-6l-2-3-1-48-1-11-11-3-3-2v-7l6-11 6-8v-47l-2-82v-64h-15l-2-2v-6l9-12 17-33 7-19 8-28z" fill="#CA4A43"/>
<path transform="translate(563,167)" d="m0 0h79l12 2 10 4 10 9 7 11 4 14v19l-4 13-7 10-5 6-11 7-12 3-8 1-23 1h-20l1 59-1 1h-31l-1-1zm33 26-1 1 1 46h31l12-3 8-6 4-7 1-4v-7l-4-10-4-5-6-3-6-1-20-1z" fill="#577CB7"/>
<path transform="translate(174,95)" d="m0 0 9 1 6 3 8 9v2h2l6 9 1 7-4 6-7 1h-18l-1 87v60l1 28v23l2 21 4 11-2 8-7 9h-5l-3-3-4-15-3-4-5 1-5 5-4 10-3 2h-4l-3-5-3-17v-60l1-11-1-15-1-49-2-16v-10l-3-36v-15l2-2 6 1 5 6 1 58 1 91 1 25 1 10 13-2 5-1v-20l1-11 1-38v-73l-1-25-2-10-2-4v-10l-7-1-16-4-4-3-6-13-1-5v-10l4-2 15 2 9-2 13-3z" fill="#557AB6"/>
<path transform="translate(696,210)" d="m0 0 33 1 23 69 3 11h2l3-11 11-35 11-32 1-2h31l-1 5-10 27-18 50-17 47-7 16-7 9-10 6-16 3h-13l-8-1-1-1-2-16v-9l12 3 7-1 9-6 6-9v-9l-6-18-15-39-13-35-8-21z" fill="#577CB7"/>
<path transform="translate(116,80)" d="m0 0 5 1 6 4 4 7 5 1h13l19-5 2-1h11l12 7 6 7 2 1 1 3 4 4 1 5 4 2 5 2-3 5-2 4-4-11-8-11-9-8-7-3-9-1-23 4-3 1h-11l-9-4-6-2-2 3v22l1 9 2 39 5 178 1 18 3 14 2 7h2v2l8-1 8-15 4-1 4 5 6 13 5 3 5-5 4-5 4-4h2l2-5v-7l-4-11-2-25-2-43v-38l-3-26-1-23v-61l1-1 18 1 5 2 5 9 3 9 2 17 2-10v-33l7 2 1 6v16l-1 30-2 16-4 15-4 11-5 9-6 5h-5l-8-6v101l2 15 6 10 4 10-4 6-6 4-8 9-3 7-3 2h-5l-6-5-4-8-3-8-3 1-4 13-5 5-4 1-5-3-7-14-3-9-3-19-2-38v-78l-1-39-1-49-2-15-1-5-1-17v-16l1-12z" fill="#475B80"/>
<path transform="translate(958,210)" d="m0 0h22l13 4 10 6 8 9 7 14 3 10 1 7v14l-1 1h-87l5 19 8 11 8 6 10 3h10l11-4 8-7 7-12 17 1 3 1-1 7-6 10-9 10-11 7-11 3h-26l-13-4-11-7-7-8-7-14-3-10-1-8v-19l3-14 5-12 7-9 8-7 14-7zm5 15-11 4-6 5-7 10-4 10v4h68l-3-11-7-11-7-7-11-4z" fill="#E04E40"/>
<path transform="translate(1484,210)" d="m0 0h22l13 4 11 7 7 8 7 14 3 12 1 19-1 1h-86l1 9 4 11 6 9 7 6 7 3 5 1h10l10-3 8-6 4-6 3-8 17 1 4 2-1 6-6 10-9 10-11 7-13 3h-22l-12-3-10-5-6-5-8-11-6-15-2-10v-23l3-12 7-14 8-10 10-7 10-4zm4 15-10 4-5 4-9 13-3 8v4h67l-1-7-4-10-7-9-5-4-10-3z" fill="#399D57"/>
<path transform="translate(1157,168)" d="m0 0h20l1 1v20l-1 36 10-8 10-5 8-2h16l12 3 9 6 6 8 3 7 1 6v87l-1 1h-18l-1-80-3-10-4-6-6-4-3-1h-15l-10 4-7 7-4 7-1 4-1 15-1 64h-19l-1-9z" fill="#E04D40"/>
<path transform="translate(1795,210)" d="m0 0h22l13 4 11 7 8 8 8 16 2 7 1 8v20l-3 16-6 12-9 10-8 6-9 4-9 2h-23l-13-4-9-6-8-8-5-8-5-15-2-14v-12l3-16 5-13 6-8 9-8 12-6zm6 15-10 3-8 6-6 8-4 9-2 12v16l3 14 7 11 7 6 9 4 5 1h7l13-4 10-9 5-10 2-8 1-20-2-13-4-10-10-11-10-4-5-1z" fill="#389D57"/>
<path transform="translate(1984,210)" d="m0 0h24l12 3 9 5 7 7 5 10 2 6-7 2-12 1-3-2-5-10-8-5-5-1h-14l-11 4-5 6-1 2v6l5 5 11 5 31 9 13 5 8 7 7 11 1 2v14l-9 12-8 8-9 5-11 3-7 1h-13l-15-3-10-5-6-5-6-10-4-12 1-3 11-2h6l8 15 6 5 12 3h12l11-4 6-7 2-9-2-7-5-2-16-5-24-7-11-5-6-4-5-6-3-9v-11l4-11 8-9 14-7z" fill="#389D57"/>
<path transform="translate(227,7)" d="m0 0h39l22 3 20 4 20 7 26 13 17 10 16 12 11 9 10 9v2h2v2h2v2h2l7 8 10 13 12 17 17 32 6 15 8 25 5 21 2 20v35l-2 23-5 21-5 17-8 20-8 16-5 9-10 17-11 14-11 13-3 3h-2l-2 4-8 7-5 5-10 8-17 11-16 10-19 10-20 7-16 3-30 4h-17l-31-3-22-5-18-5-25-12-14-8-20-14-10-9-8-7-20-20-11-14-10-15-13-24-7-15-9-30-4-18-3-24v-34l3-25 4-20 8-25 6-16 7-13 10-18 12-16 11-14 7-7 6-7 8-7 10-8 13-10 23-14 16-8 19-7 15-5 13-3zm13 2-26 3-20 5-20 7-16 8-18 10-11 8-14 11-13 12-10 10-9 11-11 15-10 16-8 15-9 21-7 22-6 28-2 21v25l2 23 7 34 8 24 16 33 15 22 7 9 9 10 11 12 15 13 14 10 24 14 21 10 24 8 20 4 18 2h32l24-3 19-5 26-11 14-7 22-14 11-9 13-12 9-9 9-11 10-13 11-17 9-17 7-16 6-16 6-23 5-27 1-12v-23l-2-22-6-32-7-24-5-11-8-17-9-15-9-13-9-12-11-13-15-15-14-11-9-7-13-8-27-14-21-8-20-5-28-4z" fill="#CE9634"/>
<path transform="translate(800,168)" d="m0 0h127v13l-1 5-37 1h-15v141h-20l-1-1-1-140h-52l-1-4z" fill="#E04B40"/>
<path transform="translate(1617,210)" d="m0 0h19l10 3 8 5 5 5 4 5 3 10v90h-19l-1-74-1-11-5-10-5-4-6-2h-14l-9 3-5 4-6 10-2 6-1 14-1 64h-18l-1-1v-115h16l2 15 8-8 12-7z" fill="#389D57"/>
<path transform="translate(1084,210)" d="m0 0h19l11 3 8 4 8 7 6 10 2 5v7l-1 1-7 1h-9l-5-8-7-10-6-3-5-1h-10l-10 3-9 8-5 10-3 12v24l3 12 7 11 9 6 9 2h7l10-3 6-4 4-5 3-7 2-9 19 1 1 5-4 12-9 13-10 8-10 4-5 1h-21l-11-3-8-4-10-9-8-14-4-13-1-7v-21l4-17 7-13 7-8 11-7 9-3z" fill="#E04E40"/>
<path transform="translate(1716,172)" d="m0 0h3v40h20v15h-19v72l1 12h17l3 5 1 11-2 2h-23l-8-3-5-4-3-7-1-5-1-46v-37h-12l-1-1v-14l13-1v-26l5-5 10-7z" fill="#3A9D58"/>
<path transform="translate(333,155)" d="m0 0h3l2 11 10 2h3l1 80 1 69-1 13-1 7 9 6 2 5-1 2-20-8-4-8-2-8-1-16-1-39-1-59v-56z" fill="#3A3739"/>
<path transform="translate(240,9)" d="m0 0h22l28 4 23 6 22 9 27 14 12 8 17 14 10 9 12 12 8 10 8 11 14 21 16 32 7 23 5 25 3 18 1 15v23l-2 19-6 28-6 21-8 19-10 21-16 24-11 14-14 15-8 8-11 9-14 10-20 12-30 13-17 5-18 3-11 1h-32l-24-3-21-5-19-7-23-11-20-12-14-10-11-10-8-7-14-15-10-13-8-12-8-13-8-16-7-16-7-21-7-34-2-23v-25l3-27 6-26 9-26 8-17 2-1-3 9-7 16-6 19-5 25-2 19v43l2 19 7 32 8 21 9 20 9 16 11 17 7 9 12 14 12 12 14 11 13 9 14 8 17 9 19 8 21 7 15 3 11 1h38l19-2 30-9 21-9 23-13 16-12 12-11 10-9 9-11 10-12 12-18 9-16 10-23 8-24 4-21 3-34v-23l-4-36-6-25-6-16-5-12-8-17-10-16-10-14-12-14-15-15-8-7-16-13-22-13-23-11-21-7-19-3-23-2-30-1-15 1-26 7-22 8-25 13-14 10-2-1 9-7 17-10 15-8 19-7 21-6 19-3z" fill="#6E5546"/>
<path transform="translate(140,138)" d="m0 0h11l3 3 3 14 1 15 1 29 1 8 1 53v67h-3l-3-5-2-7-6 1v8l-1 4h-3l-1-9-1-54v-123z" fill="#475165"/>
<path transform="translate(322,84)" d="m0 0 5 1 6 4 3 4v2l5-1 7-8 5-2 7 1 4 5 6 13 4 29v7l1 8v31l-2 23v27l1 18 1 98h2l4 18v15l-1 14-2 7-5 1-10-5-5-3-7-1-16 3-7 2h-13l-10-4-8-6-7-8-4-5v-2l-3-1-6-18 1-8 2 4 8 20 6 9 8 8 11 6h13l22-7h10l11 7 5-1-1-29-2-43-2-45-1-38-1-96-2-23-4-15-4-8-5 1-6 9-7 16-5 2-1-1-2-20-3-6-5-3-9 12-7 6-5 5-1 4 12 18v61h-1v-29h-2l-4-18-5-16-4-14 1-7 10-14 3-1v-2l6-4z" fill="#484745"/>
<path transform="translate(1918,211)" d="m0 0h20l5 2v14l-3 6-13-3h-7l-6 3-6 8-4 11-1 13-1 63h-19l-1-18v-72l1-26 17 1 1 13 9-10z" fill="#399D58"/>
<path transform="translate(116,80)" d="m0 0 5 1 6 4 4 7 5 1h13l19-5 2-1h11l12 7 6 7 2 1 1 3 4 4 1 5 4 2 5 2-3 5-2 4-4-11-8-11-9-8-7-3-9-1-23 4-3 1h-11l-9-4-6-2-2 3v22l1 9 2 39 5 178 1 18 3 14 2 7h2v2l8-1 8-15 4-1 4 5 6 13 5 3 5-5 4-5 4-4h2l2-5v-7l-4-11v-17h1l2 15 6 10 4 10-4 6-6 4-8 9-3 7-3 2h-5l-6-5-4-8-3-8-3 1-4 13-5 5-4 1-5-3-7-14-3-9-3-19-2-38v-78l-1-39-1-49-2-15-1-5-1-17v-16l1-12z" fill="#464B5A"/>
<path transform="translate(232,12)" d="m0 0 30 1v1l-36 1-19 4-21 6-16 6-19 9-9 6-12 9 11-7 5-4 2 1-7 6-8 12-1 6-2 5v5l6 5 8 4h12l15-4h7l10 4 8 6 5 5 7 8 1 4 2 1h-3l-1 2-3-6v-2l-3-1v-3l-4-2-5-6-11-6h-11l-16 5-5 1h-13l-6-2-4-7-7-4-4 1-1 12v16l1 17 2 10v8h-1l-3-12-1-3-1-26-3-12 1-5-5 3-11 8-5 5-7 11-10 15-5 6-5 11-7 17-3 10-3 9-4 17h-1v-8l5-19 6-15 1-5h2l-1-3 3-8 2-1 1-6 9-13 6-10 4-7 11-14 12-12 7-6 3-4h2v-2h2v-2l5-2v-2l-6 4h-2l-2 4-8 7-2 3h-2v2l-13 13-8 11-12 20-6 8-6 14-7 18-6 22-5 26-1 11v47l3 20 6 28 5 14-1 3-7-18-7-32-2-19v-43l3-24 5-24 7-20 8-18 4-10 7-12 12-17 9-11 11-12 10-10 11-9 5-4 5-2 15-10 25-13 27-9 19-5z" fill="#404043"/>
<path transform="translate(314,190)" d="m0 0h1v21l2 12v35l1 7 1 33 1 31 1 7v11l-4 5-4 1h-9l-14-4-2 5 5 12 7 9 1 3 4 2 7 4 2 1h10l19-5 7-2 19 1v-7l-4-14-5-6-14-6-8-4-1-8 3 4 1 4 10 3 10 5-1-6-10-7 2-20h1l1 17 4 4 7 1 3-29 2-12h1l2 35 2 46v10l-2 2-6-1-9-6h-10l-22 7h-13l-11-6-10-10-6-10-7-18-2-9v-12h2l1-4 2-33 2-5h1v18l2 25 4 11 5 6 6 3h10l2-5v-57l-1-54v-36z" fill="#3B8A54"/>
<path transform="translate(142,38)" d="m0 0m-1 1m-2 1h2l-2 4-10 7-14 11-13 12-9 9-9 11-11 15-10 16-8 15-9 21-7 22-6 28-2 21v25l2 23 7 34 8 24 16 33 15 22 7 9 9 10 11 12 14 12 14 10 24 14 21 10 24 8 20 4 18 2h32l19-1-1 2-23 3h-17l-31-3-22-5-18-5-25-12-14-8-20-14-10-9-8-7-20-20-11-14-10-15-13-24-7-15-9-30-4-18-3-24v-34l3-25 4-20 8-25 6-16 7-13 10-18 12-16 11-14 7-7 6-7 8-7 10-8 13-10z" fill="#CE9A33"/>
<path transform="translate(184,135)" d="m0 0h11l5 2 5 9 3 9v33l-3 17-5 14-5 3h-9l-2-1-1-11v-74z" fill="#3A3739"/>
<path transform="translate(150,146)" d="m0 0 2 1 1 4 1 37v14l1 24v17l2 50 3 20v11l-4-3-4-19-2-3-4-44-2-53v-47l4-7z" fill="#3B393B"/>
<path transform="translate(242,93)" d="m0 0 3 2v3l4 13 4 8 1 3-2 6-1 25-2 23-1 25-3 3-3-5-1-10-2-18-3-29-1-10-4-11-3-3v-6l5-9 6-7z" fill="#E04B41"/>
<path transform="translate(370,235)" d="m0 0 2 4 2 26 1 79h2l4 18v15l-1 14-2 7-5 1-10-5-5-3-7-1-16 3-7 2h-13l-10-4-8-6-7-8-4-5v-2l-3-1-6-18 1-8 2 4 8 20 6 9 8 8 11 6h13l22-7h10l11 7 5-1-1-29-2-43-2-45v-34z" fill="#484948"/>
<path transform="translate(119,87)" d="m0 0 6 1 7 6 5 1h10l24-6h8l10 4 5 5h-3l-8-4-9-1-23 4-3 1h-11l-9-4-6-2-2 3v22l1 9 2 39 5 178 1 18 3 14 2 7h2v2l8-1 5-9 1 3-4 10-4 4-7-1-4-8-4-13-2-24-2-68-3-123-3-32v-34z" fill="#485D85"/>
<path transform="translate(117,147)" d="m0 0h1l1 61 1 39v66l2 38 3 19 6 16 5 8 5 1 5-2 2-6 3-10 4-2 3 5 4 10 6 6h5l3-1 2-7 9-10 7-5 2-5-4-9-4-6 1-2 4 5 6 10-1 8-4 3h-2l-2 4-7 8-6 9-4 2-7-1-5-3-4-4-5 1-8 4-5 1-5-3-6-8-5-13-4-17-1-16-1-42z" fill="#414144"/>
<path transform="translate(322,84)" d="m0 0 5 1 6 4 3 4v2l5-1 7-8 5-2 7 1 4 5 6 13 4 29v7l1 8v31l-2 23v27l1 18v19h-1l-2-26-2-1-1-4v-78l2-1v-22l-2-22-4-16-6-8h-5l-7 7-4 6-4 2-3-3-6-10-7-4z" fill="#414144"/>
<path transform="translate(298,243)" d="m0 0 5 2 6 4 2 8 1 7-2 2-3-6v-2l-9 1-4 4-6 12-2 11-2-1-1 4-2 33-2 4h-2v8l-1-4h-2l1-25 5-33 5-17 7-9z" fill="#484A46"/>
<path transform="translate(122,55)" d="m0 0 3 1-4 5-4 3h-2l-2 4-8 7-2 3h-2v2l-13 13-8 11-12 20-6 8-6 14-7 18-6 22-5 26-1 11v47l3 20 6 28 5 14-1 3-7-18-7-32-2-19v-43l3-24 5-24 7-20 8-18 4-10 7-12 12-17 9-11 11-12 10-10 11-9z" fill="#494845"/>
<path transform="translate(118,82)" d="m0 0 8 4 5 6 5 1h13l19-5 2-1h11l12 7 6 7 2 1 1 3 4 4 1 5 4 2 5 2-3 5-2 4-4-11-8-11-6-7-4-4-10-4h-8l-24 6h-10l-7-2-7-6h-6l1 34 3 32 3 126 2 65 2 24 3 10-1 3-4-12-2-15-2-43-1-65-2-83-2-29-2-13v-37z" fill="#495865"/>
<path transform="translate(184,334)" d="m0 0h1l2 15 6 10 4 10-4 6-6 4-8 9-3 7-3 2h-5l-6-5-4-8-3-8-3 1-4 13-5 5-4 1-5-3-4-8 4 2 1 3h9l2-5 3-8 2-7 3-3 4 2 6 12 3 5 4 2 5-5 4-5 4-4h2l2-5v-7l-4-11z" fill="#474F5D"/>
<path transform="translate(374,283)" d="m0 0h1l1 33 2 18 3 15 3 18-1 20-2 11-4 4-9-1-11-7h-8l-20 5h-12l-10-4-12-9-8-7-3-8 2-1 6 8 8 9 11 6 4 1h13l15-4 11-1 8 3 8 5 8 1 2-21v-15l-3-13v-5h-2l-1-8z" fill="#414143"/>
<path transform="translate(335,241)" d="m0 0 2 4 1 63 3 18 4 5 3 2 3-3v7l9 6 2 5-1 2-20-8-4-8-2-8-1-16-1-39v-20z" fill="#484846"/>
<path transform="translate(353,86)" d="m0 0h5l5 6 3 5 3 14 2 22v22l-2 2-1-1-2-34-3-16-5-13-4-1-5 5-11 22-4 1-1-1-2-23 3-1 2 6 6-1 2-4 7-8z" fill="#484845"/>
<path transform="translate(144,202)" d="m0 0h1l2 53 4 44 2 3-1 3-1-2h-3l-1 21-1 4h-3l-1-113z" fill="#464B5A"/>
<path transform="translate(370,235)" d="m0 0 2 4 2 26 1 71 3 24 1 9-1 15-2 3-2-8-3-62-2-45v-34z" fill="#485663"/>
<path transform="translate(66,367)" d="m0 0 5 5 8 13 8 11 3 3v2h2l4 6 3 3v2l4 2 7 7 8 7 11 8 12 9 18 10 24 12 25 8 13 3 8 2 12 1h45v1l-12 1h-38l-17-2-16-4-19-7-18-8-15-8-17-10-13-10-11-9-15-15-9-11-10-14-10-16z" fill="#494845"/>
<path transform="translate(140,138)" d="m0 0h11l3 3 3 14 1 15 1 29 1 8 1 53v67h-3l-3-5-2-7-6 1v-13l4-1 3 4 2 11v4l3 1v-50l-2-48-1-51-1-16-4-16-3 1-3 7-3 4-1-11z" fill="#485D85"/>
<path transform="translate(313,241)" d="m0 0h1l1 44v57l-3 6h-10l-8-5-6-9-2-7v-5l2 4 4 5v3l4 2 4 3 4 1 5-5 2-4 1-9h2v-14h-2l-2-12v-13l3-1z" fill="#484949"/>
<path transform="translate(188,351)" d="m0 0 5 5 6 10-1 8-4 3h-2l-2 4-7 8-6 9-4 2-7-1-5-3-4-4-5 1-8 4-3-1 3-3h2l2-6 3-10 4-2 3 5 4 10 6 6h5l3-1 2-7 9-10 7-5 2-5-4-9-4-6z" fill="#414143"/>
<path transform="translate(337,164)" d="m0 0 1 2 10 2h3v70h-1l-1-50h-2v7l-2 8h-2l-5-24z" fill="#484847"/>
<path transform="translate(119,87)" d="m0 0 6 1 7 6 5 1h10l24-6h8l10 4 5 5h-3l-8-4-9-1-23 4-3 1h-11l-9-4-6-2-2 3v22l1 9 1 22v17h-1l-4-43v-34z" fill="#485D85"/>
<path transform="translate(140,193)" d="m0 0h1l2 135h3l1-12 6-2 4 10 1 3 3 1-9 3h-9l-2-10-1-25-1-102z" fill="#5171A9"/>
<path transform="translate(323,89)" d="m0 0 5 3 3 4 2 13v5l-2-4-3-9-5-2-5 3-8 9-1 2 1 10 2 2 2 7v18h-1l-1-15-12-18 1-4 4-5 8-6z" fill="#3C8A54"/>
<path transform="translate(227,7)" d="m0 0h27v2l-34 3-23 5-23 8-16 8-16 9v-3l10-7 16-8 15-6 21-7 13-3z" fill="#CE9334"/>
<path transform="translate(122,55)" d="m0 0 3 1-4 5-4 3h-2l-2 4-8 7-2 3h-2v2l-13 13-8 11-12 20-6 8-3 3-1-2 8-15 11-16 11-14 12-13 10-10 11-9z" fill="#544B45"/>
<path transform="translate(376,344)" d="m0 0h1l4 18v15l-1 14-2 7-5 1-10-5-5-3-7-1-16 3-3-1 8-3 8-2h8l8 3 1-2 4 2 5-1 1-5h2l1-16-3-23z" fill="#484845"/>
<path transform="translate(232,12)" d="m0 0 30 1v1l-36 1-19 4-21 6-16 6-19 9-9 6-12 9-7 5-2-1 3-4 2-3 5-2 15-10 25-13 27-9 19-5z" fill="#494845"/>
<path transform="translate(354,91)" d="m0 0 4 1 4 8 4 15 2 23v48h-1l-1-46-3-25-5-14-1-1h-6l-6 12-3 4h-2l3-9 6-12z" fill="#3C8A54"/>
<path transform="translate(184,334)" d="m0 0h1l2 15 6 10 4 10-4 6-6 4-8 9-3 7-3 2h-5l-6-5-4-8-3-8-4 1 1-4 3-1 3 3 5 13 5 4h5l6-10 7-7 5-4 1-5-4-9-2-3v-3h-2z" fill="#485461"/>
<path transform="translate(337,268)" d="m0 0h1l1 22 1 12 3-1 4 15 2 12v5l-2 1v-2l-4-2-3-4-3-18z" fill="#404043"/>
<path transform="translate(263,14)" d="m0 0h12l18 2 18 4 21 8 20 10 13 8 11 8 11 9 4 5-4-2-10-8-15-11-15-9-15-7h-3v-2l-6-2-14-5h-4v-2l-5 1-2-1h-6l-1-1-7-1v-2l-9 1-1-1-11-1z" fill="#474744"/>
<path transform="translate(170,87)" d="m0 0h11l12 7 6 7 2 1 1 3 4 4 1 5 4 2 5 2-3 5-2 4-4-11-8-11-6-7-4-4-10-4h-8l-24 6h-10l-4-2 3-1h13l19-5z" fill="#464B5A"/>
<path transform="translate(346,153)" d="m0 0h5v15l-5 1-8-3-2-8 1-3z" fill="#3C8A54"/>
<path transform="translate(247,280)" d="m0 0 2 1 1 16 1 2v17l-2 4-4-2-1-2v-14l2-7v-14z" fill="#E04B41"/>
<path transform="translate(149,140)" d="m0 0 3 1 1 5-1-2h-2l-1 4-4 7v20l-1 30-1 10h-1v-62l4-7 2-5z" fill="#485764"/>
<path transform="translate(185,351)" d="m0 0 2 3 5 9 1 5-3 5-11 10-5 9-1 1h-5l-5-6-2-6v-5l2 3 3 6 5 3 5-5 4-5 4-4h2l2-5v-7l-3-7z" fill="#485D85"/>
<path transform="translate(322,84)" d="m0 0 5 1 6 4 3 4v2l5-1 7-8 5-2 7 1 4 5 5 10-1 3-8-14-2-2h-5l-7 7-4 6-4 2-3-3-6-10-7-4z" fill="#414144"/>
<path transform="translate(467,208)" d="m0 0h1l3 29v21l-3 34h-1z" fill="#494845"/>
<path transform="translate(362,100)" d="m0 0 4 4 2 9v6h2l1 14v22l-2 2-1-1-2-34-3-16z" fill="#495865"/>
<path transform="translate(298,119)" d="m0 0 3 4 5 13 4 9 2 6v16h-2l-4-18-5-16-3-9z" fill="#414144"/>
<path transform="translate(171,89)" d="m0 0h8l10 4 5 5h-3l-8-4-9-1-23 4-3 1h-11l-3-1v-2h13z" fill="#485A75"/>
<path transform="translate(122,55)" d="m0 0 3 1-4 5-4 3h-2l-2 4-8 7-2 3h-2v2l-13 13-3 1 2-5 14-15 9-9 11-9z" fill="#594D45"/>
<path transform="translate(338,335)" d="m0 0 13 2 9 6 2 5-1 2-20-8-3-5z" fill="#485663"/>
<path transform="translate(171,84)" d="m0 0h7l10 4 8 6 5 5 7 8 1 4 2 1h-3l-1 2-3-6v-2l-3-1v-3l-4-2-5-6-11-6h-11l-6 1 2-4z" fill="#424245"/>
<path transform="translate(314,190)" d="m0 0h1v21l2 12v20l-1 11h-1l-2-17v-42z" fill="#3D8658"/>
<path transform="translate(140,138)" d="m0 0h11l3 3 3 14 1 15v29h-1l-2-42-4-16-3 1-3 7-3 4-1-11z" fill="#485D85"/>
<path transform="translate(348,383)" d="m0 0h10l6 4v3l-5-1-3-1h-8l-21 5h-5l4-1v-2z" fill="#464B59"/>
<path transform="translate(212,184)" d="m0 0h6v9l-4 19-3 6-1-3 1-5v-18z" fill="#485764"/>
<path transform="translate(148,302)" d="m0 0 4 1 2 3 2 11v4l3 1 1-16h1v21h-3l-3-5-2-7-6 1v-13z" fill="#48566A"/>
<path transform="translate(313,241)" d="m0 0h1v67h-2l-2-12v-13l3-1z" fill="#434548"/>
<path transform="translate(150,144)" d="m0 0h2l2 3 2 10 1 16v16l-1-3h-2l-1-5-1-30z" fill="#47515F"/>
<path transform="translate(369,208)" d="m0 0 2 1 2 19 1 18v19h-1l-2-26-2-1z" fill="#454954"/>
<path transform="translate(116,78)" d="m0 0 6 1 12 10 7 2 15-1 2-1h6l-4 2-11 3h-13l-6-2-4-7-7-4-5 1z" fill="#484845"/>
<path transform="translate(331,96)" d="m0 0 2 2 4 13 2 1 2-4 3-4-1 5-5 10-4 1-1-1z" fill="#495A6D"/>
<path transform="translate(312,322)" d="m0 0h2v13l-3 7-7 2-8-5-2-4 6 4 4 1 5-5 2-4z" fill="#414144"/>
<path transform="translate(343,34)" d="m0 0 14 7 14 9 16 13 4 5-4-2-10-8-15-11-15-9-4-2z" fill="#494845"/>
<path transform="translate(154,372)" d="m0 0 4 3 5 13 5 4 1 2 5-1 3-2-1 4-3 2h-5l-6-5-4-8-3-8-4 1 1-4z" fill="#464C5A"/>
<path transform="translate(245,338)" d="m0 0 8 1 2 3-2 1-1 6-3 1-1-3-3 1-2-7z" fill="#DF4A41"/>
<path transform="translate(57,151)" d="m0 0 1 3-5 13-4 10-5 22h-1v-8l5-19 6-15 1-5z" fill="#414144"/>
<path transform="translate(184,334)" d="m0 0h1l2 15 6 10 4 10-4 6-4 1 4-5v-7l-1-4-3-1-3-5v-3h-2z" fill="#464B5A"/>
<path transform="translate(374,336)" d="m0 0h1l3 24 1 9-1 15-2 3v-20l-2-18z" fill="#464B5A"/>
<path transform="translate(112,96)" d="m0 0h1l2 31 2 10v8h-1l-3-12-1-3z" fill="#434344"/>
<path transform="translate(194,99)" d="m0 0 4 1 3 2 1 3 4 4 1 5 4 2 5 2-3 5-2 4-4-11-8-11z" fill="#48566A"/>
<path transform="translate(154,367)" d="m0 0 4 2 3 5 2 11 1 4-3-3-5-12-4-1-2 4v-6z" fill="#48596B"/>
<path transform="translate(373,335)" d="m0 0h1l3 33-1 16h-1l-1-5-1-19z" fill="#495865"/>
<path transform="translate(212,129)" d="m0 0 7 2 1 6v16h-1l-1-9-3-4v-2h-2z" fill="#495462"/>
<path transform="translate(308,140)" d="m0 0 4 1 1 3v52h-1l-1-45z" fill="#484744"/>
<path transform="translate(257,55)" d="m0 0h1l1 39 1 12h10v1h-11l-2-4z" fill="#645145"/>
<path transform="translate(340,184)" d="m0 0 4 4h2l1-2 2 2h-2v7l-2 8h-2l-3-16z" fill="#414144"/>
<path transform="translate(337,164)" d="m0 0 1 2 10 3-4 5-1 4-4-2-2-8z" fill="#485562"/>
<path transform="translate(369,119)" d="m0 0h1l1 14v22l-2 2-1-1z" fill="#464B5A"/>
<path transform="translate(144,41)" d="m0 0m-1 1v3l-9 7-11 8-2-1 3-4 2-3 5-2z" fill="#4C4945"/>
<path transform="translate(348,383)" d="m0 0h10l6 4-1 2-10-3-16 3-4-1z" fill="#495764"/>
<path transform="translate(324,469)" d="m0 0 4 1-24 8-11 3h-7v-1l14-4 22-6z" fill="#494845"/>
<path transform="translate(366,100)" d="m0 0 4 3 2 13v9l-1 8h-1l-2-22z" fill="#444"/>
<path transform="translate(368,189)" d="m0 0h1l2 20h-1l-1 25h-1z" fill="#484845"/>
<path transform="translate(317,91)" d="m0 0v3l-11 12-4 2 2-5 5-6h2v-2z" fill="#414144"/>
<path transform="translate(359,91)" d="m0 0 4 4 4 8 2 8v8h-1l-3-15-4-4-2-5z" fill="#464B59"/>
<path transform="translate(153,375)" d="m0 0 4 2 3 11-3-3v-3l-5-1-1 4-1-4 2-5z" fill="#484744"/>
<path transform="translate(335,241)" d="m0 0 2 4v14h-1l-1 5h-1v-20z" fill="#414144"/>
<path transform="translate(149,140)" d="m0 0 3 1 1 5-1-2h-2l-1 4-4 7-2-3 2-4 3-7z" fill="#485562"/>
<path transform="translate(128,82)" d="m0 0 9 6 9 2h7v1l-5 1h-7l-8-3-6-5z" fill="#3A3739"/>
<path transform="translate(309,250)" d="m0 0 1 3 1 4 1 7-2 2-3-6v-2l-2-1 2-4 2-1z" fill="#404043"/>
<path transform="translate(354,84)" d="m0 0 6 1 4 5 5 10-1 3-8-14-2-2-5-1z" fill="#404043"/>
<path transform="translate(148,302)" d="m0 0 4 1 2 3v5l-4-2-3 3v-9z" fill="#485764"/>
<path transform="translate(333,155)" d="m0 0h3l1 9-4-1v8h-1v-15z" fill="#464749"/>
<path transform="translate(151,94)" d="m0 0h4v2l-7 2h-11l-3-1v-2h13z" fill="#485A72"/>
<path transform="translate(157,302)" d="m0 0h1l2 11v11l-4-3v-3h2l-1-6z" fill="#414145"/>
<path transform="translate(208,114)" d="m0 0 8 4-3 5-2 4-3-9z" fill="#524E4D"/>
<path transform="translate(150,308)" d="m0 0 3 1 1 6-7 1 1-6z" fill="#485D85"/>
<path transform="translate(344,100)" d="m0 0h1v5l-5 5-1 2-3-1-1-7 2 3 3-1z" fill="#464A58"/>
<path transform="translate(278,343)" d="m0 0 2 4 2 13-2-1-3-8z" fill="#454546"/>
<path transform="translate(235,414)" d="m0 0 2 2 6 1 1-2v5l-5 1-4-3z" fill="#6E5546"/>
<path transform="translate(306,127)" d="m0 0 5 4 2 4v9h-1l-3-10-3-5z" fill="#495865"/>
<path transform="translate(304,127)" d="m0 0h2l6 12v2l-3-1-5-11z" fill="#464B5A"/>
<path transform="translate(84,93)" d="m0 0h3l-2 4-5 5-4 3 2-4z" fill="#5B4E45"/>
<path transform="translate(288,332)" d="m0 0 4 4 4 5v2l4 1v2l-5-2-6-8z" fill="#47505E"/>
<path transform="translate(807,211)" d="m0 0h4l1 4-1 2h-5l1-3h-2v-2z" fill="#5171A9"/>
<path transform="translate(122,55)" d="m0 0 3 1-4 5-4 3-3-1 5-5z" fill="#5C4E45"/>
<path transform="translate(215,200)" d="m0 0 1 3-3 11-3 4 2-10z" fill="#464C5B"/>
<path transform="translate(184,334)" d="m0 0h1l2 15v5l-1-3h-2z" fill="#475467"/>
<path transform="translate(179,385)" d="m0 0v3l-1 3-6 4-4-1v-1l6-2 2-4z" fill="#475260"/>
<path transform="translate(187,351)" d="m0 0 4 5 3 4-1 3-1-3-3-1-2-3z" fill="#464E5C"/>
<path transform="translate(2046,279)" d="m0 0 2 1v5l-2-3z" fill="#81C195"/>
</svg>
