<svg width="363" height="537" viewBox="0 0 363 537" fill="none" xmlns="http://www.w3.org/2000/svg">
<path d="M101.865 478.59C101.865 478.59 103.738 437.636 90.6649 417.922C78.464 399.523 60.3691 402.478 44.9325 387.091C19.9131 362.152 2 305.537 2 305.537V168.288C2 168.288 36.9003 99.813 71.0653 107.62C93.4965 112.746 103.138 128.832 113.998 150.386C130.028 182.204 109.698 207.051 113.998 242.88C118.248 278.296 123.52 298.041 135.464 331.395C151.761 376.905 183.899 392.135 193.329 439.802C199.72 472.105 218.326 504.872 193.329 524.339C175.079 538.553 153.715 538.553 135.464 524.339C110.467 504.872 143.831 471.587 135.464 439.802C126.613 406.18 108.789 393.299 90.6649 364.216C69.9671 331.002 47.4148 318.511 35.5993 280.673C22.5967 239.033 15.2769 206.45 35.5993 168.288C45.5264 149.647 51.0853 126.177 71.0653 128.506C96.0409 131.418 69.7647 170.367 71.0653 197.13C73.6405 250.125 58.5422 290.875 90.6649 331.395C100.846 344.238 121.464 359.243 121.464 359.243L152.264 417.922L166.263 491.519" stroke="white" stroke-opacity="0.18" stroke-width="4"/>
<path d="M256.865 464.883C256.865 464.883 258.738 413.977 245.665 389.473C233.464 366.604 215.369 370.276 199.932 351.15C174.913 320.151 157 249.78 157 249.78V79.1807C157 79.1807 191.9 -5.93335 226.065 3.77096C248.497 10.1424 258.138 30.1369 268.998 56.9286C285.028 96.4774 264.698 127.363 268.998 171.898C273.248 215.92 278.52 240.462 290.464 281.922C306.761 338.49 338.899 357.42 348.329 416.67C354.72 456.822 373.326 497.551 348.329 521.749C330.079 539.417 308.715 539.417 290.464 521.749C265.467 497.551 298.831 456.178 290.464 416.67C281.613 374.878 263.789 358.867 245.665 322.717C224.967 281.432 202.415 265.907 190.599 218.874C177.597 167.116 170.277 126.616 190.599 79.1807C200.526 56.0096 206.085 26.8364 226.065 29.7317C251.041 33.3509 224.765 81.7643 226.065 115.031C228.641 180.903 213.542 231.555 245.665 281.922C255.846 297.885 276.464 316.536 276.464 316.536L307.264 389.473L321.263 480.954" stroke="white" stroke-opacity="0.18" stroke-width="4"/>
</svg>
